<?xml version="1.0" standalone="no"?>
<!DOCTYPE svg PUBLIC "-//W3C//DTD SVG 20010904//EN"
 "http://www.w3.org/TR/2001/REC-SVG-20010904/DTD/svg10.dtd">
<svg version="1.0" xmlns="http://www.w3.org/2000/svg" viewBox="0 0 393.000000 362.000000"
 preserveAspectRatio="xMidYMid meet">

<g transform="translate(0.000000,362.000000) scale(0.100000,-0.100000)"
fill="#2D2D2D" stroke="none">
<path d="M1210 3460 c-272 -16 -413 -31 -482 -50 -200 -55 -346 -201 -418
-415 -39 -119 -44 -625 -10 -1015 6 -63 15 -167 20 -230 5 -63 14 -140 19
-170 6 -30 13 -82 16 -115 3 -33 13 -94 22 -135 14 -70 19 -91 44 -195 28
-116 116 -261 192 -316 147 -107 281 -133 762 -149 187 -6 357 -14 377 -17 32
-4 40 -11 64 -57 15 -28 29 -53 33 -56 13 -11 51 -70 51 -80 0 -5 4 -10 9 -10
4 0 25 -26 46 -57 49 -74 205 -230 238 -238 82 -21 111 53 131 335 l11 155 55
2 c232 11 549 37 583 49 22 8 46 14 54 14 55 0 220 122 258 191 56 102 125
286 125 335 0 13 5 35 10 50 12 30 35 189 50 339 5 55 14 145 20 200 11 103
36 576 47 860 10 278 -35 423 -177 565 -130 131 -247 173 -545 197 -218 17
-1381 26 -1605 13z m1755 -53 c77 -14 174 -44 185 -56 3 -3 25 -17 50 -30 66
-35 113 -76 163 -140 38 -49 56 -82 98 -176 24 -56 30 -193 19 -468 -6 -155
-15 -336 -20 -402 -6 -66 -15 -192 -20 -279 -15 -244 -49 -492 -89 -656 -14
-57 -82 -230 -90 -230 -3 0 -12 -12 -18 -27 -29 -65 -122 -138 -223 -175 -110
-41 -201 -54 -480 -68 -172 -9 -208 -13 -222 -28 -14 -14 -20 -47 -28 -167
-11 -174 -30 -269 -58 -298 l-21 -20 -37 28 c-51 39 -144 137 -144 153 0 6 -4
12 -8 12 -5 0 -37 42 -70 93 -34 50 -65 97 -70 103 -16 22 -33 50 -43 71 -24
46 -68 51 -554 63 -390 9 -441 17 -583 88 -32 16 -142 114 -142 126 0 3 -13
25 -29 49 -89 130 -138 391 -187 997 -12 138 -17 323 -18 565 -1 340 0 364 20
430 44 144 111 243 216 320 128 95 194 111 528 134 69 5 501 8 960 6 692 -2
849 -6 915 -18z"/>
<path d="M1132 2723 l3 -128 130 0 130 0 3 128 3 127 -136 0 -136 0 3 -127z"/>
<path d="M2427 2843 c-13 -12 -8 -220 6 -231 6 -5 65 -11 130 -11 l117 -2 10
26 c6 15 10 71 10 126 l0 99 -133 0 c-74 0 -137 -3 -140 -7z"/>
<path d="M1127 1554 c-11 -11 -8 -247 3 -264 7 -12 33 -15 129 -15 74 0 124 4
131 11 8 8 9 50 3 140 l-8 129 -126 3 c-69 1 -128 -1 -132 -4z"/>
</g>
</svg>
