<?xml version="1.0" standalone="no"?>
<!DOCTYPE svg PUBLIC "-//W3C//DTD SVG 20010904//EN"
 "http://www.w3.org/TR/2001/REC-SVG-20010904/DTD/svg10.dtd">
<svg version="1.0" xmlns="http://www.w3.org/2000/svg" viewBox="0 0 719.000000 715.000000"
 preserveAspectRatio="xMidYMid meet">

<g transform="translate(0.000000,715.000000) scale(0.100000,-0.100000)"
fill="#ff7800" stroke="none">
<path d="M4060 6735 l0 -215 164 0 163 0 7 38 c3 20 6 100 6 177 0 77 -3 157
-6 178 l-7 37 -163 0 -164 0 0 -215z"/>
<path d="M290 5811 l0 -1099 98 -8 c53 -4 307 -4 563 0 257 4 663 4 903 0 414
-7 436 -8 436 -26 0 -15 8 -18 50 -18 42 0 50 3 50 19 0 15 10 20 45 25 l45 7
0 232 c0 128 3 512 7 855 6 594 7 622 25 622 17 0 18 13 18 220 0 213 -1 220
-20 220 -13 0 -20 7 -20 19 0 14 -10 20 -37 25 -21 3 -516 6 -1100 6 l-1063 0
0 -1099z m1858 -3 l-3 -713 -737 -3 -738 -2 0 470 c0 463 0 470 -20 470 -19 0
-20 7 -20 239 l0 240 23 4 c12 2 354 5 760 6 l737 1 -2 -712z"/>
<path d="M2789 6883 c-1 -16 0 -498 1 -1073 1 -575 -2 -1125 -6 -1222 l-7
-178 -123 0 -124 0 0 -25 0 -25 -190 0 -190 0 0 -100 c0 -93 1 -100 20 -100
13 0 20 -7 20 -20 0 -13 -7 -20 -19 -20 -14 0 -21 -8 -23 -27 l-3 -28 -95 -3
c-52 -2 -119 0 -147 3 l-53 6 0 170 0 169 -170 0 -170 0 0 -25 c0 -20 -5 -25
-25 -25 l-25 0 0 -144 0 -144 -27 -3 c-16 -2 -193 -3 -396 -1 -351 3 -367 4
-367 22 0 12 -8 20 -23 22 -21 3 -22 7 -25 126 l-3 122 -189 0 -190 0 0 -145
0 -145 25 0 c20 0 25 -5 25 -25 l0 -25 164 0 163 0 7 -37 c3 -21 6 -77 6 -125
l0 -88 -120 0 -119 0 -7 -50 c-5 -40 -10 -50 -25 -50 -17 0 -19 -9 -19 -95 0
-88 1 -95 20 -95 20 0 20 -7 20 -339 l0 -338 37 -7 c21 -3 154 -6 296 -6 250
0 257 -1 257 -20 0 -19 7 -20 125 -20 118 0 125 1 125 20 0 13 7 20 20 20 19
0 20 7 20 125 l0 125 125 0 125 0 0 -25 c0 -18 5 -25 19 -25 23 0 31 -40 31
-157 l0 -83 170 0 170 0 0 320 0 320 440 0 c433 0 440 0 440 20 0 15 7 20 25
20 20 0 25 5 25 25 0 18 5 25 20 25 29 0 27 37 -2 43 l-23 4 23 2 c19 1 22 7
22 39 0 20 3 54 6 75 l7 37 92 0 93 0 7 -50 c5 -38 11 -50 24 -50 16 0 19 -14
24 -112 4 -62 7 -173 7 -245 0 -126 1 -133 20 -133 15 0 20 -7 20 -25 l0 -25
295 0 295 0 0 25 c0 20 5 25 25 25 24 0 25 2 25 70 0 68 -1 70 -25 70 -24 0
-25 2 -25 74 l0 73 38 7 c20 3 85 6 144 6 103 0 107 1 110 23 2 14 11 23 26
25 19 3 22 9 22 48 0 36 -3 44 -19 44 -15 0 -19 10 -24 67 -3 38 -3 71 0 75 2
5 69 8 149 8 l144 0 0 -55 c0 -47 3 -55 19 -55 22 0 31 -35 31 -120 l0 -58 47
-7 c26 -4 135 -6 243 -5 300 3 300 3 300 -19 0 -13 8 -21 23 -23 18 -2 23 -10
25 -48 2 -25 1 -68 -3 -97 l-6 -52 -45 -7 c-33 -5 -44 -11 -44 -24 0 -16 -16
-19 -157 -25 -87 -4 -249 -4 -359 -1 -111 4 -238 4 -283 0 l-81 -7 -2 -461 -3
-461 -95 -3 c-52 -2 -119 0 -147 3 l-53 6 0 145 0 144 -25 0 c-20 0 -25 5 -25
25 l0 25 -100 0 -100 0 0 25 c0 18 -5 25 -19 25 -16 0 -19 11 -26 94 -6 87 -9
95 -28 98 -14 2 -23 11 -25 25 -3 23 -3 23 -245 25 l-242 3 -3 123 c-2 114 -4
122 -22 122 -13 0 -20 7 -20 19 0 26 -40 31 -257 31 -176 0 -183 1 -183 20 0
19 -7 20 -144 20 l-143 0 -7 -41 c-3 -22 -3 -107 0 -189 l7 -149 46 -3 c39 -3
46 -6 49 -25 l3 -23 290 0 289 0 0 -295 0 -295 75 0 c73 0 75 -1 75 -25 0 -23
3 -25 50 -25 l50 0 0 -125 0 -125 -125 0 -125 0 0 -50 c0 -43 -3 -50 -20 -50
-19 0 -20 -7 -20 -95 0 -88 1 -95 20 -95 13 0 20 -7 20 -20 0 -19 7 -20 170
-20 l170 0 0 145 0 145 170 0 170 0 0 170 0 170 105 0 105 0 0 -25 c0 -18 5
-25 19 -25 18 0 20 -10 23 -135 2 -74 2 -196 0 -270 l-4 -135 -24 0 c-19 0
-24 -5 -24 -25 l0 -25 -145 0 -145 0 0 -125 0 -125 -145 0 -145 0 0 -189 0
-189 443 -7 c243 -4 462 -5 487 -3 l45 3 3 53 c3 44 6 52 23 52 17 0 19 8 19
95 l0 95 145 0 145 0 0 170 0 170 33 2 c17 2 95 3 172 3 77 0 206 1 288 3
l147 2 0 165 0 165 -37 0 c-74 0 -113 11 -113 31 0 18 -10 19 -145 19 -138 0
-145 -1 -145 -20 0 -13 -7 -20 -20 -20 -13 0 -20 7 -20 20 0 17 -8 19 -77 22
l-78 3 0 237 c0 130 4 240 8 245 5 4 61 8 125 8 l117 0 3 -122 3 -123 119 0
120 0 0 -25 c0 -33 37 -35 42 -2 2 14 11 23 26 25 22 3 22 6 22 147 0 141 0
144 -22 147 -15 2 -24 11 -26 26 -3 21 -7 22 -123 22 l-119 0 0 125 0 125 295
0 295 0 -2 -857 -3 -858 -72 -3 c-65 -3 -73 -5 -73 -22 0 -13 -7 -20 -20 -20
-13 0 -20 7 -20 20 0 16 -7 20 -30 20 l-30 0 0 119 0 119 -95 7 c-84 7 -95 10
-95 26 0 17 -8 19 -75 19 -73 0 -75 -1 -75 -25 0 -18 -5 -25 -18 -25 -17 0
-19 -13 -25 -136 -3 -75 -9 -139 -12 -143 -4 -3 -69 -8 -146 -9 l-139 -4 0
-149 0 -149 -144 0 -143 0 -7 -31 c-3 -17 -6 -89 -6 -159 0 -155 6 -190 31
-190 14 0 19 -7 19 -25 l0 -25 100 0 c91 0 100 2 100 19 0 28 38 31 401 31
l326 0 7 90 c4 49 4 94 1 100 -4 6 -4 31 0 56 l6 44 270 0 c262 0 269 0 269
-20 0 -13 7 -20 20 -20 19 0 20 -7 20 -150 l0 -150 170 0 170 0 0 195 0 195
-145 0 -145 0 0 126 0 127 78 -7 c43 -3 99 -3 125 0 41 6 47 10 47 30 0 17 6
24 20 24 19 0 20 7 20 120 l0 120 440 0 440 0 0 88 c0 49 3 136 6 195 l7 105
-29 4 c-21 2 -30 9 -32 25 -3 22 -8 23 -98 23 l-94 0 0 465 0 465 -314 0 -313
0 -7 31 c-3 17 -6 82 -6 145 0 109 -1 113 -22 116 -15 2 -24 11 -26 25 -3 22
-7 23 -145 25 l-142 3 -3 117 -3 117 -147 3 -147 3 0 125 0 125 28 3 c19 2 27
9 27 23 0 18 8 19 158 19 88 0 207 3 265 6 98 6 106 9 109 28 2 13 12 22 26
24 21 3 22 7 22 118 l0 114 -25 0 c-20 0 -25 5 -25 24 0 22 -5 24 -76 30 -42
4 -96 4 -120 0 l-44 -6 0 51 c0 48 -2 51 -25 51 -23 0 -25 3 -25 50 0 47 2 50
25 50 20 0 25 5 25 25 l0 25 145 0 145 0 0 195 0 195 -292 2 -293 3 -3 23 -3
22 -490 0 -489 0 0 120 c0 113 -1 120 -20 120 -19 0 -20 7 -20 164 0 90 -3
178 -6 195 l-6 31 -107 0 c-58 0 -123 3 -144 6 l-38 7 3 96 3 96 123 3 c111 2
122 4 122 21 0 14 10 20 45 25 l45 7 0 459 0 459 -142 3 c-140 3 -143 4 -146
26 l-3 22 -339 0 -339 0 -3 -22 c-3 -23 -5 -23 -148 -23 l-145 0 -3 148 -3
147 25 0 c18 0 25 6 28 23 l3 22 293 3 292 2 0 170 0 170 -510 0 -510 0 -1
-27z m581 -978 c0 -20 5 -25 25 -25 l25 0 0 -119 c0 -116 1 -120 23 -123 14
-2 23 -11 25 -25 3 -22 7 -23 123 -23 110 0 119 1 119 19 0 15 10 20 50 26
l50 7 0 119 0 119 125 0 125 0 0 -232 c0 -128 -3 -250 -6 -270 l-7 -38 -163 0
-163 0 -6 -52 c-4 -29 -5 -96 -3 -148 l3 -95 -125 0 -125 0 -3 123 -3 122
-144 0 -145 0 0 295 0 295 50 0 c42 0 50 3 50 18 0 27 9 32 57 32 39 0 43 -2
43 -25z m0 -1225 l0 -270 -25 0 c-20 0 -25 5 -25 25 0 24 -2 25 -75 25 l-75 0
0 245 0 245 100 0 100 0 0 -270z m640 220 c0 -42 3 -50 19 -50 13 0 20 -10 25
-31 14 -73 22 -69 -144 -69 l-150 0 0 100 0 100 125 0 125 0 0 -50z m-300
-855 l0 -276 -122 3 -123 3 -3 260 c-1 143 0 265 3 272 3 10 37 13 125 13
l120 0 0 -275z m603 269 l37 -7 0 -98 0 -99 -100 0 c-93 0 -100 -1 -100 -20 0
-29 -38 -27 -42 3 -2 14 -11 23 -25 25 -22 3 -23 8 -23 78 0 67 2 74 20 74 15
0 20 7 20 25 0 25 1 25 88 25 48 0 104 -3 125 -6z m-2503 -564 l0 -270 -295 0
-295 0 0 94 0 94 31 6 c17 3 80 6 140 6 104 0 108 1 111 23 2 14 11 23 26 25
22 3 22 6 22 148 l0 144 130 0 130 0 0 -270z m680 245 l0 -25 150 0 151 0 -3
-97 -3 -98 -272 -3 -273 -2 0 25 c0 20 -5 25 -25 25 -24 0 -25 2 -25 63 0 34
3 79 6 100 l7 37 143 0 144 0 0 -25z m2160 -50 c0 -68 2 -75 20 -75 17 0 20
-7 20 -50 l0 -50 -150 0 -150 0 0 125 0 125 130 0 130 0 0 -75z m680 -245 l0
-270 -125 0 -125 0 0 270 0 270 125 0 125 0 0 -270z m-4360 -290 c0 -15 7 -20
25 -20 18 0 25 5 25 20 0 18 7 20 75 20 l75 0 0 -50 c0 -43 3 -50 20 -50 19 0
20 -7 20 -95 0 -88 -1 -95 -20 -95 -15 0 -20 -7 -20 -25 l0 -25 -125 0 c-118
0 -125 1 -125 20 0 19 -7 20 -100 20 l-100 0 0 150 0 150 125 0 c118 0 125 -1
125 -20z m4950 -1150 l0 -150 170 0 170 0 0 -270 0 -270 -125 0 -125 0 0 120
c0 113 -1 120 -20 120 -15 0 -20 7 -20 25 l0 25 -125 0 -125 0 0 275 0 275
100 0 100 0 0 -150z m-1570 -590 l0 -100 -125 0 -125 0 0 100 0 100 125 0 125
0 0 -100z m1568 -316 l3 -122 -33 -5 c-18 -3 -63 -2 -100 1 l-68 5 0 118 0
118 28 4 c15 2 59 4 97 3 l70 -1 3 -121z"/>
<path d="M5773 6903 c-1025 -3 -1033 -3 -1033 -23 0 -13 -7 -20 -18 -20 -18 0
-19 -19 -25 -332 -4 -182 -7 -623 -7 -980 0 -641 0 -648 -20 -648 -19 0 -20
-7 -20 -95 0 -87 2 -95 19 -95 14 0 21 -8 23 -27 2 -20 9 -29 26 -31 14 -2 22
-10 22 -23 0 -19 19 -19 1050 -19 l1050 0 0 25 c0 20 5 25 25 25 l25 0 0 588
c0 323 3 685 7 805 6 202 7 217 25 217 17 0 18 16 18 314 l0 313 -37 7 c-21 3
-51 5 -68 3 -16 -1 -495 -3 -1062 -4z m640 -389 c27 -5 37 -11 37 -25 0 -17 8
-19 75 -19 l75 0 0 -345 c0 -338 0 -345 -20 -345 -19 0 -20 -8 -22 -367 l-3
-368 -662 -3 c-655 -2 -663 -2 -663 -22 0 -18 -7 -20 -69 -20 l-68 0 -7 31
c-3 17 -6 359 -6 760 l0 729 648 0 c356 0 664 -3 685 -6z"/>
<path d="M6600 4385 c0 -18 -5 -25 -20 -25 -18 0 -20 -8 -22 -147 l-3 -148
-147 -3 c-140 -2 -148 -4 -148 -22 0 -15 -7 -20 -25 -20 l-25 0 0 -610 0 -610
365 0 365 0 0 340 0 340 -145 0 -145 0 0 270 0 270 145 0 145 0 0 170 0 170
-25 0 c-20 0 -25 5 -25 25 l0 25 -145 0 -145 0 0 -25z"/>
<path d="M290 1375 c0 -1068 0 -1075 20 -1075 15 0 20 -7 20 -25 l0 -25 345 0
345 0 0 25 0 25 735 0 c728 0 735 0 735 20 0 13 7 20 20 20 20 0 20 7 20 1030
0 1023 0 1030 -20 1030 -15 0 -20 7 -20 25 l0 25 -1100 0 -1100 0 0 -1075z
m1810 25 c0 -653 0 -660 20 -660 14 0 20 -7 20 -24 0 -18 -7 -25 -31 -30 -17
-3 -269 -6 -560 -6 -522 0 -529 0 -529 -20 0 -19 -7 -20 -194 -20 l-194 0 -6
31 c-3 17 -6 60 -6 95 0 57 -2 64 -20 64 -18 0 -20 7 -20 75 0 68 2 75 20 75
20 0 20 7 20 540 l0 540 740 0 740 0 0 -660z"/>
<path d="M2782 444 c3 -198 3 -199 26 -202 14 -2 22 -10 22 -23 0 -18 13 -19
393 -21 l392 -3 3 -22 c3 -20 9 -23 48 -23 40 0 44 2 44 25 0 20 5 25 25 25
l25 0 0 215 0 215 -302 0 c-167 0 -387 3 -491 7 l-187 6 2 -199z"/>
<path d="M6600 610 c0 -15 -7 -20 -26 -20 -25 0 -26 -2 -20 -37 3 -21 6 -109
6 -195 l0 -158 170 0 c163 0 170 1 170 20 0 13 7 20 19 20 23 0 31 50 31 184
0 134 -7 166 -36 166 -17 0 -24 6 -24 20 0 19 -7 20 -145 20 -138 0 -145 -1
-145 -20z"/>
</g>
</svg>
