<svg viewBox="0 0 610 553" fill="none" xmlns="http://www.w3.org/2000/svg">
<path d="M425.929 3.30732C413.283 12.4594 392.38 34.1862 385.164 45.6449C383.305 48.6212 383.082 48.77 378.172 49.2164C367.609 50.3325 357.12 54.6481 353.029 59.7078C348.119 65.6604 349.905 72.357 358.385 80.2442C362.625 84.2621 370.361 89.545 370.956 88.8754C371.18 88.6521 367.832 85.0062 363.518 80.765C359.203 76.5238 355.633 72.6546 355.633 72.2082C355.633 71.7618 355.112 71.0177 354.517 70.4968C353.029 69.2319 352.36 65.0651 353.327 63.1305C354.368 61.2704 358.459 60.0799 364.187 60.0799C368.576 60.0799 378.693 61.3448 379.288 61.94C379.957 62.5353 375.643 77.4911 374.229 79.4257C372.593 81.7323 372.295 83.5181 373.56 84.2621C374.006 84.5598 374.081 85.3038 373.858 86.0479C373.114 87.6849 371.477 98.9203 370.436 108.444C369.32 119.159 369.989 141.481 371.626 148.252C373.039 153.833 377.577 165.217 379.437 167.598C380.776 169.384 387.768 176.229 389.181 177.271C389.776 177.643 391.264 178.536 392.454 179.131C394.537 180.247 394.686 180.619 395.207 186.2C395.504 189.474 395.951 192.896 396.174 193.789C396.471 195.129 396.174 195.575 394.537 195.947C393.347 196.245 392.157 196.691 391.711 196.989C391.339 197.286 389.851 197.807 388.512 198.105C387.173 198.402 385.164 199.072 384.049 199.667C382.933 200.263 381.668 200.709 381.148 200.709C379.362 200.709 355.112 212.391 353.401 214.102C353.029 214.474 351.393 215.442 347.822 217.376C347.004 217.823 346.037 218.641 345.739 219.088C345.442 219.608 344.846 220.055 344.4 220.055C344.028 220.055 339.937 222.957 335.325 226.528C325.952 233.82 311.893 247.585 305.867 255.398C303.636 258.226 301.478 260.904 301.032 261.351C300.586 261.723 299.247 263.583 297.982 265.443C296.792 267.303 295.527 268.866 295.23 269.015C294.858 269.163 294.635 269.61 294.635 269.982C294.635 270.652 291.808 275.042 290.841 275.86C290.395 276.232 286.303 283.301 284.816 286.277C284.295 287.319 283.7 288.286 283.477 288.509C281.617 290.295 267.855 321.323 267.855 323.778C267.855 324.225 267.409 325.49 266.814 326.606C266.219 327.722 265.549 329.731 265.252 331.07C264.954 332.409 264.433 333.823 264.136 334.27C263.838 334.642 263.243 336.502 262.797 338.362C262.351 340.222 261.384 343.868 260.64 346.547C259.45 350.788 259.078 351.383 257.441 351.383C256.176 351.383 255.507 350.937 255.358 349.895C254.837 346.398 251.936 337.841 250.077 334.567C248.068 330.921 243.084 324.969 242.043 324.969C241.745 324.969 240.183 322.513 238.547 319.463C233.935 310.683 228.207 305.176 225.752 307.185C224.487 308.227 224.934 308.748 220.619 301.903C214.817 292.751 210.726 286.724 209.164 285.012C207.155 282.929 201.65 281.813 193.021 281.813C185.285 281.813 180.599 283.375 179.706 286.277C179.26 287.691 181.715 293.643 183.872 296.248C185.583 298.331 189.748 304.209 189.748 304.432C189.748 304.581 190.418 305.549 191.236 306.516C192.054 307.409 194.881 311.203 197.485 314.924C200.163 318.57 202.692 322.067 203.138 322.588C203.659 323.109 203.808 324.373 203.584 325.341C202.841 328.317 204.403 340.594 205.742 342.082C206.411 342.826 207.081 344.389 207.229 345.505C207.75 349.374 209.833 353.318 212.065 354.583C213.329 355.252 214.668 356.889 215.04 358.154C216.305 362.023 218.76 363.66 224.413 364.553C227.24 365 231.257 366.116 233.265 367.083C235.348 368.05 238.547 369.092 240.481 369.315C243.084 369.687 244.572 370.431 246.283 372.217L248.663 374.673L245.837 375.491C244.2 375.938 242.415 376.31 241.745 376.31C239.886 376.31 224.264 381.072 217.272 383.75C215.04 384.643 212.139 385.685 210.8 386.057C209.461 386.429 207.453 387.247 206.337 387.843C205.221 388.438 203.733 388.959 203.064 388.959C202.469 388.959 201.65 389.256 201.204 389.628C200.832 390 197.857 391.191 194.584 392.233C191.311 393.349 187.963 394.465 187.145 394.837C180.376 397.516 170.78 399.301 169.292 398.111C168.845 397.813 166.019 394.539 162.969 390.819C159.919 387.173 156.795 383.453 156.051 382.634C155.307 381.816 153.447 379.583 151.96 377.574C150.472 375.64 148.984 374.077 148.686 374.077C148.389 374.077 148.091 373.78 148.091 373.408C148.091 372.961 147.05 371.548 145.785 370.208C140.95 365 140.95 364.851 144.149 360.907C148.984 354.88 149.951 353.764 151.067 352.499C151.662 351.904 153.67 349.3 155.53 346.919C157.39 344.463 159.026 342.306 159.25 342.082C159.993 341.487 172.119 325.638 176.805 319.388C179.185 316.114 181.566 313.064 181.938 312.543C185.434 308.302 187.517 305.102 187.517 304.06C187.517 302.721 184.913 305.251 180.971 310.459C179.111 312.915 177.326 315.073 177.103 315.296C176.879 315.519 175.54 317.156 174.127 319.016C172.714 320.876 171.375 322.513 171.152 322.737C170.78 323.034 154.563 343.719 151.588 347.663C151.29 348.035 148.538 351.681 145.562 355.699L139.983 362.991L137.9 360.684C136.784 359.345 135.148 357.559 134.33 356.592C133.511 355.699 132.172 354.136 131.354 353.169C130.536 352.202 128.379 349.523 126.519 347.291C124.659 345.059 122.353 342.38 121.461 341.338C117.964 337.618 117.89 336.502 121.312 334.79C122.353 334.27 125.18 332.707 127.635 331.219C130.09 329.805 132.916 328.243 133.958 327.722C134.999 327.275 135.966 326.68 136.189 326.382C136.413 326.159 139.239 324.522 142.512 322.737C145.785 320.951 148.91 319.016 149.43 318.495C149.951 317.974 150.769 317.528 151.141 317.528C151.513 317.528 153.224 316.635 155.009 315.519C159.547 312.543 160.886 311.724 162.969 310.683C164.01 310.162 164.977 309.566 165.201 309.343C165.424 309.12 166.242 308.599 167.06 308.153C170.036 306.516 172.193 305.251 172.937 304.656C173.383 304.284 175.54 302.944 177.772 301.679C181.715 299.298 183.946 296.843 181.045 297.959C179.706 298.48 168.176 304.879 165.944 306.367C165.349 306.813 164.01 307.483 163.043 307.855C162.076 308.302 159.845 309.566 158.208 310.683C156.497 311.799 153.596 313.51 151.662 314.552C149.654 315.593 148.091 316.635 148.091 316.933C148.091 317.305 147.719 317.528 147.348 317.528C146.901 317.528 142.215 320.132 136.933 323.257C131.577 326.457 126.668 329.433 125.998 329.805C125.254 330.252 123.32 331.442 121.684 332.484C116.625 335.683 116.551 335.683 112.757 330.921C110.898 328.466 108.964 326.085 108.443 325.564C107.922 325.043 106.211 322.96 104.649 320.951C103.087 319.016 101.078 316.71 100.186 315.891C98.103 313.882 93.2678 310.831 92.2263 310.831C91.78 310.831 90.3667 310.385 89.1021 309.79C84.4157 307.706 78.3903 306.218 68.7943 304.581L59.0495 303.019L55.8508 299.298C51.6851 294.387 44.2464 286.054 40.9733 282.557C39.56 280.994 35.0223 276.158 30.931 271.768C22.2277 262.318 20.5911 261.425 15.756 263.062C9.5074 265.146 4.07711 269.536 1.47355 274.521C-0.162979 277.646 -0.311754 280.027 1.02722 282.259C1.91987 283.896 8.39159 291.411 13.4499 296.768C17.0205 300.563 27.8811 312.468 30.7822 315.742C32.1212 317.23 34.4272 319.76 35.9894 321.397C38.6673 324.299 38.7417 324.597 38.7417 329.88C38.7417 336.725 40.527 350.044 42.2379 355.476C43.8001 360.61 46.4036 363.884 58.4544 375.938C67.0834 384.494 73.3319 390.447 89.9203 405.477L94.6067 409.718L93.4909 411.951C92.0032 414.852 92.0032 415.745 93.7885 417.903C95.0531 419.317 95.7969 419.614 97.9542 419.242C100.26 418.87 100.558 418.945 100.111 420.061C98.103 424.674 99.6651 427.65 103.98 427.65C105.839 427.65 106.434 427.948 106.434 428.99C106.434 431.817 108.294 433.157 112.088 433.008C115.435 432.933 115.882 433.157 116.997 435.166C118.039 436.951 118.783 437.323 120.94 437.323C122.428 437.323 124.287 437.026 125.031 436.579C126.147 435.984 127.56 436.654 132.544 440.374C139.462 445.508 142.215 446.103 146.678 443.35C150.1 441.267 150.695 441.341 154.786 444.541C156.72 446.103 159.101 447.889 159.993 448.484C160.886 449.08 162.076 449.973 162.523 450.345C163.341 451.089 166.763 453.47 169.069 454.809C169.738 455.181 172.639 456.967 175.392 458.604C179.706 461.208 195.03 468.872 199.791 470.806C200.609 471.178 204.328 472.443 207.973 473.708C225.157 479.363 238.547 481.223 250.374 479.438C254.391 478.842 257.887 478.396 258.036 478.545C258.185 478.694 257.813 481 257.143 483.604C256.548 486.134 255.805 489.483 255.581 490.896C255.358 492.31 254.689 495.51 254.094 497.965C252.531 504.959 250.821 513.218 249.928 518.055C247.845 529.29 246.878 534.945 245.911 541.121C245.39 544.767 244.646 548.934 244.349 550.273C243.903 552.58 243.977 552.803 245.613 552.505C247.176 552.282 247.473 551.687 248.217 547.074C248.738 544.172 249.482 539.856 249.928 537.401C252.383 524.603 253.201 520.585 254.168 515.823C254.763 512.921 255.507 508.754 255.953 506.522C256.325 504.29 257.367 499.23 258.259 495.361C259.078 491.492 260.268 486.134 260.788 483.456C261.309 480.777 262.276 476.461 262.946 473.783C263.541 471.104 264.582 466.491 265.177 463.515C265.847 460.464 266.516 457.711 266.814 457.339C267.037 456.967 267.483 455.107 267.781 453.098C268.153 451.163 269.194 446.922 270.087 443.648C270.98 440.374 272.095 435.835 272.616 433.603C273.583 429.808 275.294 423.632 277.972 414.629C278.641 412.546 279.311 410.016 279.534 408.9C280.055 406.072 281.245 406.296 285.188 410.016C288.981 413.587 291.659 415.969 295.379 419.019C300.065 422.814 305.272 427.278 306.611 428.543C307.95 429.808 328.481 445.508 334.581 449.973C336.515 451.386 342.317 455.33 347.45 458.678C352.583 462.026 357.12 465.077 357.567 465.375C358.311 465.97 360.393 467.235 363.443 468.946C364.262 469.393 366.121 470.509 367.535 471.327C372.742 474.527 378.544 477.652 390.223 483.381C404.877 490.524 407.258 491.64 408.597 491.64C409.192 491.64 409.935 491.938 410.307 492.31C411.721 493.575 430.466 499.528 440.658 501.983C447.576 503.62 465.057 505.778 471.528 505.778C485.067 505.778 503.217 501.537 514.376 495.882C529.774 488.069 546.957 472.146 556.256 457.041C558.859 452.874 565.034 442.085 565.331 441.416C565.48 441.044 566.67 438.291 568.083 435.314C569.497 432.412 570.613 429.511 570.613 428.841C570.613 428.246 570.91 427.576 571.356 427.278C571.728 427.055 572.398 425.79 572.77 424.451C573.216 423.112 574.258 420.061 575.076 417.605C576.638 413.364 578.274 407.709 580.804 398.632C583.035 390.67 585.341 378.914 586.903 368.125C587.35 365.074 588.094 360.61 588.466 358.303C589.284 353.987 590.251 342.082 591.144 326.606C591.515 320.504 591.441 318.272 590.846 318.272C590.325 318.272 589.953 319.016 589.953 319.909C589.879 327.052 585.713 358.898 583.035 372.961C581.771 379.286 581.473 380.774 578.051 394.316C576.787 399.153 575.82 403.245 575.82 403.468C575.82 404.435 574.109 403.468 569.05 399.599C566.001 397.218 563.397 395.135 563.174 394.911C562.951 394.688 561.314 393.498 559.454 392.307C557.595 391.117 555.958 389.926 555.735 389.703C554.842 388.81 550.528 385.982 550.082 385.982C549.784 385.982 548.966 385.536 548.371 384.941C547.18 383.899 530.518 374.077 529.923 374.077C529.774 374.077 525.162 371.92 519.806 369.315C514.376 366.711 506.788 363.363 502.92 361.875C499.052 360.312 495.109 358.75 494.217 358.377C488.266 355.996 463.495 348.184 457.99 346.993C454.419 346.175 454.196 345.952 454.27 343.943C454.419 341.413 455.907 336.204 458.287 330.177C459.18 327.945 460.221 325.043 460.593 323.704C460.965 322.365 461.784 320.356 462.379 319.239C462.974 318.123 463.495 316.635 463.495 316.04C463.495 315.37 463.792 314.552 464.09 314.18C464.387 313.733 465.429 311.427 466.396 308.971C468.553 303.465 470.115 299.894 474.727 290.221C476.736 286.054 478.372 282.334 478.372 281.887C478.372 281.441 478.67 281.069 479.042 281.069C479.413 281.069 479.934 280.176 480.232 279.06C480.455 277.944 480.976 276.827 481.199 276.604C481.496 276.381 482.761 274.298 483.951 271.917C485.216 269.536 486.555 267.006 486.927 266.336C487.373 265.592 488.935 262.913 490.497 260.235C491.985 257.556 493.696 254.729 494.217 253.91C497.415 248.85 498.382 246.841 497.862 246.544C497.564 246.321 496.895 246.395 496.448 246.693C495.332 247.362 491.762 252.645 491.762 253.538C491.762 253.836 491.539 254.282 491.241 254.431C490.869 254.505 489.679 256.142 488.414 258.002C487.224 259.863 486.034 261.5 485.811 261.723C485.588 261.946 484.769 263.434 483.951 264.997C483.133 266.634 482.166 268.345 481.719 268.791C480.306 270.354 466.47 297.289 464.313 302.721C463.792 304.135 462.825 306.218 462.23 307.483C461.635 308.674 460.817 310.534 460.519 311.575C460.147 312.617 459.18 315.296 458.287 317.528C457.469 319.76 455.907 324.299 454.791 327.573C453.75 330.847 452.485 334.716 451.89 336.13C451.369 337.544 450.7 340.073 450.477 341.71C450.179 343.347 449.733 344.984 449.361 345.431C448.766 346.249 447.873 350.342 445.344 365C444.377 370.431 443.41 375.045 443.187 375.268C442.964 375.491 442.22 375.342 441.401 374.97C440.211 374.301 434.186 372.44 426.301 370.283C424.887 369.911 421.54 369.241 418.862 368.869C416.184 368.497 411.87 367.827 409.192 367.455C402.571 366.488 373.932 364.553 352.657 363.66C322.753 362.395 302.222 360.833 297.387 359.419C295.899 359.047 296.048 357.113 297.982 352.871C298.875 350.862 300.139 347.44 304.008 336.502C304.603 334.865 305.421 332.856 305.793 332.037C306.165 331.219 307.132 328.838 307.876 326.829C310.703 319.686 315.315 308.525 318.141 302.051C318.736 300.786 319.629 298.554 320.224 297.215C321.266 294.834 325.878 284.789 327.737 280.697C328.332 279.432 331.68 272.586 335.176 265.369C338.672 258.151 341.499 252.05 341.499 251.752C341.499 250.339 339.416 251.678 338.449 253.687C337.854 255.026 335.25 260.309 332.647 265.443C330.043 270.577 327.217 276.232 326.324 278.092C325.357 279.953 323.795 283.078 322.679 285.161C321.637 287.17 319.778 291.188 318.439 294.09C317.174 296.917 315.686 300.266 315.091 301.531C314.124 303.688 312.711 306.962 309.959 313.436C309.215 315.073 308.397 317.082 308.025 317.9C304.454 326.159 302.074 332.112 302.074 332.93C302.074 334.27 301.255 334.195 296.42 332.037C294.114 330.996 291.808 330.177 291.362 330.177C290.915 330.103 289.205 329.508 287.568 328.689C285.931 327.871 284.072 327.275 283.402 327.201C282.733 327.201 280.948 326.68 279.534 326.085C278.046 325.49 276.038 324.969 275.071 324.969C274.104 324.969 272.839 324.522 272.17 324.001C271.128 323.183 271.203 322.513 273.211 317.528C277.079 307.781 283.625 294.239 287.27 288.212C288.014 286.947 288.981 285.161 289.353 284.343C289.725 283.45 291.585 280.473 293.445 277.72C295.304 275.042 296.866 272.661 296.866 272.512C296.866 271.917 307.578 258.226 311.595 253.612C323.497 240.07 339.491 226.156 350.574 219.683C351.318 219.236 354.963 217.079 358.757 214.772C362.551 212.54 368.502 209.415 371.998 207.778C375.494 206.215 378.767 204.578 379.288 204.206C379.957 203.685 380.18 206.29 380.18 216.855C380.18 241.931 384.941 258.226 395.504 268.94C398.033 271.545 400.34 273.628 400.563 273.628C400.86 273.628 401.976 274.223 403.017 274.893C411.349 280.325 427.565 280.25 439.467 274.744C440.732 274.149 442.145 273.628 442.592 273.628C443.038 273.628 443.41 273.33 443.41 272.958C443.41 272.586 444.303 272.065 445.344 271.842C446.385 271.545 448.319 270.577 449.658 269.684C455.758 265.443 462.602 260.458 464.536 258.747C469.222 254.729 482.091 241.41 486.257 236.276C488.712 233.299 491.018 230.472 491.39 230.025C491.836 229.579 492.58 228.537 493.101 227.793C493.621 226.975 496.374 223.106 499.201 219.162C502.102 215.144 504.408 211.721 504.408 211.573C504.408 211.052 508.871 204.504 509.466 204.132C509.987 203.834 520.773 208.671 521.517 209.564C521.74 209.787 523.376 210.828 525.236 211.796C527.096 212.763 529.923 214.474 531.559 215.516C536.469 218.864 542.717 223.254 543.089 223.701C543.312 223.998 545.321 225.635 547.552 227.496C554.173 232.927 562.207 240.889 566.744 246.469C569.05 249.297 571.133 251.827 571.356 252.05C571.58 252.273 573.067 254.431 574.63 256.886C576.192 259.342 578.051 262.169 578.721 263.211C579.465 264.253 581.696 268.568 583.779 272.884C589.061 283.896 589.953 285.979 589.953 287.17C589.953 287.765 590.251 288.509 590.623 288.881C591.292 289.7 593.375 295.876 595.756 304.507C600.888 323.109 602.897 336.651 605.575 370.729C606.542 383.229 606.542 412.918 605.575 427.65C605.128 433.975 604.459 445.359 604.087 452.949C603.046 472.295 601.707 490.227 598.508 528.1C596.871 547.594 596.797 552.282 598.136 552.282C599.029 552.282 599.401 550.124 600.219 541.121C600.74 534.945 601.632 524.231 602.227 517.311C602.822 510.317 603.789 498.635 604.385 491.268C604.98 483.902 605.798 473.857 606.244 468.946C609.368 432.338 610.038 370.134 607.583 346.919C606.839 339.925 605.947 333.228 605.575 332.037C605.277 330.772 604.756 327.945 604.459 325.713C604.236 323.481 603.715 320.579 603.343 319.388C602.971 318.123 601.93 313.957 601.037 310.087C597.987 296.694 593.375 284.194 586.606 270.652C583.854 265.146 582.217 262.244 581.25 261.128C580.729 260.607 580.283 259.863 580.283 259.565C580.283 259.044 577.903 255.696 570.464 245.725C568.307 242.749 553.206 227.719 549.412 224.743C542.271 219.088 532.972 212.614 532.005 212.614C531.634 212.614 531.187 212.317 531.038 212.019C530.964 211.647 527.468 209.564 523.376 207.406C510.359 200.56 504.333 197.733 502.771 197.733C502.176 197.733 501.432 197.435 501.06 197.138C500.391 196.617 498.457 195.798 488.786 192.152C483.951 190.367 476.438 188.06 475.173 188.06C474.504 188.06 473.76 187.688 473.462 187.241C472.644 185.902 470.264 174.518 470.189 171.988V169.607L473.388 170.723C477.256 172.062 485.662 171.69 489.753 169.905L492.506 168.714L488.935 165.068C486.927 163.059 485.067 160.678 484.844 159.86C484.472 158.446 484.769 158.297 487.968 158.297C489.976 158.297 492.58 157.925 493.845 157.479L496.151 156.66L494.365 152.568C493.324 150.261 492.506 147.136 492.506 145.499V142.523L499.126 143.044C507.086 143.639 513.185 142.597 515.343 140.216C520.475 134.561 519.136 124.888 511.698 113.281C510.656 111.644 509.243 109.784 508.573 109.263C505.747 106.882 505.598 103.31 508.127 97.6554C508.797 96.1673 510.21 91.3308 512.367 83.146C514.227 76.1518 516.31 63.6514 516.31 59.4846C516.31 52.0439 513.409 45.1241 507.458 38.1298C502.771 32.7725 489.456 19.9001 488.414 19.9001C488.042 19.9001 483.654 16.9982 482.835 16.1797C481.719 15.0636 467.809 7.99496 466.768 7.99496C466.544 7.99496 465.28 7.54852 464.015 6.95326C460.147 5.16749 453.452 3.53054 444.228 2.0424C431.88 -0.0409958 430.392 0.107818 425.929 3.30732ZM437.831 3.53054C454.791 6.2836 459.329 7.69733 473.165 14.3196C483.654 19.3048 490.051 23.9181 498.829 32.8469C502.548 36.5672 506.491 41.1061 507.755 42.9662C508.945 44.8264 510.136 46.4634 510.359 46.6866C510.582 46.9098 511.474 48.5468 512.442 50.4069C514.078 53.532 514.152 54.1273 513.409 59.3358C513.037 62.3865 512.293 67.7438 511.846 71.2409C511.4 74.738 510.731 78.384 510.359 79.4257C509.987 80.4674 509.615 82.1043 509.466 83.0716C509.094 85.8991 507.978 85.6015 505.226 81.9555C501.432 76.9702 489.976 65.5116 483.579 60.4519C480.529 57.9965 477.851 55.8387 477.628 55.6154C477.405 55.3922 475.768 54.2017 473.909 53.0112C472.049 51.7463 470.487 50.5558 470.338 50.1837C470.189 49.8861 469.743 49.6629 469.371 49.6629C468.999 49.6629 466.991 48.5468 464.833 47.133C462.676 45.7937 460.147 44.4544 459.254 44.1568C458.287 43.8591 457.544 43.3383 457.544 42.9662C457.544 42.5942 456.576 42.1478 455.312 41.8501C454.122 41.5525 453.08 41.0317 453.08 40.6596C453.08 40.2876 452.708 39.99 452.262 39.99C451.741 39.99 449.807 39.3203 447.948 38.4274C438.872 34.2606 435.599 33.1445 421.838 29.4242C418.788 28.6057 413.952 27.6384 411.2 27.2664C408.373 26.8943 405.844 26.4479 405.472 26.2247C404.654 25.7038 412.242 17.9655 420.424 10.9712C430.987 1.89359 430.169 2.26562 437.831 3.53054ZM398.033 53.7553C409.787 56.3595 412.39 57.0292 414.027 57.8476C414.845 58.2197 417.672 59.2614 420.35 60.0799C425.631 61.7912 426.152 62.0144 432.401 64.8419C434.707 65.8836 436.864 66.7765 437.161 66.7765C438.128 66.7765 455.684 75.3333 463.123 79.4257C472.198 84.4854 483.133 90.9588 484.695 92.2237C485.067 92.5957 487.968 94.6791 491.018 96.9857C504.408 106.882 514.301 118.861 515.938 127.418L516.384 129.65L514.301 127.046C509.243 120.647 492.654 105.468 490.72 105.468C490.2 105.468 485.811 102.492 485.067 101.748C484.472 101.078 467.14 91.0332 462.751 88.801C450.03 82.2531 446.609 80.6906 438.575 77.1935C436.566 76.375 434.186 75.3333 433.368 74.9613C432.549 74.5892 430.02 73.5475 427.789 72.729C425.557 71.8362 422.953 70.7945 422.061 70.4224C419.457 69.4551 403.315 64.1722 398.777 62.8329C385.76 59.1126 375.94 57.4756 366.196 57.55C359.501 57.55 359.352 57.4756 360.988 56.2107C362.476 55.0946 364.262 54.4993 371.254 52.5648C372.295 52.2671 376.982 52.0439 381.668 52.0439C388.14 51.9695 392.082 52.4159 398.033 53.7553ZM387.024 63.0561C391.785 64.2466 404.58 67.595 408.597 68.6367C410.456 69.2319 412.762 69.976 413.58 70.4224C414.399 70.8689 415.663 71.2409 416.407 71.2409C417.151 71.2409 418.713 71.7618 419.903 72.357C421.019 72.9523 422.358 73.4731 422.73 73.4731C423.102 73.4731 424.813 74.0684 426.524 74.8124C428.235 75.5565 431.136 76.8214 432.996 77.5655C434.855 78.3096 438.649 79.9465 441.401 81.2114L446.46 83.4437L445.939 86.8664C445.642 88.7266 445.121 90.9588 444.823 91.9261C444.451 92.8933 444.154 95.2 444.154 96.9857C444.154 101.301 446.385 112.909 447.278 112.909C447.576 112.909 447.873 113.281 447.873 113.727C447.873 115.067 450.997 121.317 453.675 125.409L456.279 129.353L459.85 125.856C463.346 122.359 463.643 122.284 467.958 122.21C471.826 122.21 472.57 122.433 473.686 124.07C476.884 128.534 476.587 134.636 472.793 139.77C469.743 143.937 465.801 146.02 461.04 145.871C456.502 145.797 456.725 147.21 461.337 148.327L464.61 149.145L465.131 157.255C465.652 166.11 467.363 177.345 469.074 183.298C469.669 185.381 470.189 187.613 470.189 188.209C470.189 189.399 473.686 191.036 476.066 191.036C476.736 191.036 478.223 191.557 479.413 192.152C480.529 192.748 482.017 193.268 482.612 193.268C483.207 193.268 484.769 193.715 486.034 194.31C487.373 194.905 489.456 195.724 490.646 196.096C498.68 198.849 506.639 202.346 506.639 203.165C506.639 203.462 505.449 205.62 504.036 207.852C501.581 211.721 500.911 212.614 498.829 215.07C498.382 215.59 496.895 217.599 495.481 219.608C494.142 221.617 492.506 223.775 491.836 224.445C491.167 225.115 488.638 228.165 486.257 231.142C483.802 234.192 480.827 237.764 479.562 239.029C478.298 240.368 476.587 242.228 475.694 243.195C471.231 248.33 453.452 263.955 452.113 263.955C451.89 263.955 450.03 265.071 447.873 266.485C440.286 271.47 427.193 275.86 419.755 275.86C417.969 275.86 414.622 275.339 412.316 274.67C398.926 271.024 391.636 262.095 386.206 242.749C384.421 236.424 382.486 219.608 382.412 209.489V203.685L385.239 202.272C386.727 201.528 390.223 200.114 393.05 199.221C399.075 197.212 399.224 196.84 398.48 186.721C397.885 178.61 397.364 177.345 394.537 176.229C385.09 172.658 377.577 161.125 374.081 144.904C372.891 139.026 372.593 135.157 372.667 121.838C372.667 111.197 373.039 103.682 373.783 99.5156C374.378 96.0184 375.048 91.4052 375.345 89.2474C375.792 85.6759 376.015 85.3782 377.8 85.3782C378.916 85.3782 381.073 85.0062 382.71 84.5598C385.388 83.8157 385.536 83.6669 385.09 81.4347C384.495 78.6816 383.602 77.9375 380.404 77.9375C377.503 77.9375 377.428 77.3423 379.139 71.3153C380.776 65.586 382.263 62.3121 383.156 62.3121C383.528 62.3121 385.313 62.6841 387.024 63.0561ZM506.714 122.359C512.813 128.609 514.822 131.734 514.822 135.008C514.822 138.133 514.004 138.877 509.317 140.067C504.705 141.258 501.283 141.407 495.927 140.737C492.878 140.291 492.506 140.067 492.506 138.282C492.506 136.347 493.919 129.65 495.927 121.763C496.523 119.531 496.969 116.704 496.969 115.587V113.578L499.052 114.992C500.168 115.811 503.589 119.085 506.714 122.359ZM22.2277 264.848C23.5666 266.187 23.3435 268.122 21.335 271.247C17.8388 276.679 11.5159 281.217 6.68067 281.664C3.70517 281.962 3.03569 281.738 2.3662 280.473C0.655284 277.348 4.89537 271.545 12.3341 266.782C16.8718 263.881 20.5911 263.211 22.2277 264.848ZM30.5591 274.446C32.27 276.232 34.6504 279.134 35.3199 280.176C37.4027 283.598 24.0874 295.95 18.1364 295.95C16.9462 295.95 6.01119 285.831 6.01119 284.715C6.01119 284.417 7.27577 283.97 8.76353 283.673C13.9707 282.706 23.8642 274.595 23.8642 271.247C23.8642 268.717 25.5007 268.494 27.5092 270.875C28.5506 272.14 29.964 273.777 30.5591 274.446ZM40.6758 285.831C42.5355 287.914 50.7181 296.992 56.7435 303.465C58.2312 305.028 59.4958 305.474 63.6615 305.921C66.4139 306.218 70.282 306.813 72.1417 307.26C79.4317 308.971 86.0522 310.98 87.9863 312.022C89.0277 312.617 90.5154 313.064 91.1849 313.064C92.2263 313.064 92.4495 313.51 92.0776 315.519C91.7056 317.974 86.6473 327.35 85.4571 327.796C85.1595 327.945 84.862 328.391 84.862 328.764C84.862 329.433 83.2255 331.442 76.6793 338.585C69.0918 346.919 54.4375 356.592 48.5609 357.113C46.2548 357.336 45.9573 357.113 44.9903 354.36C43.5025 350.118 41.7916 338.808 41.1965 329.88L40.7502 322.29L36.7332 317.826C32.1956 312.915 19.8473 299.596 19.029 298.852C18.8058 298.554 20.2192 297.81 22.3021 297.066C26.4678 295.727 33.5346 290.89 33.5346 289.402C33.5346 288.956 33.8321 288.509 34.2041 288.509C34.576 288.509 35.3199 287.319 35.8406 285.905C37.0308 282.631 37.9978 282.631 40.6758 285.831ZM206.486 285.607C208.345 286.872 214.817 295.652 218.388 301.754C218.834 302.423 220.47 305.028 222.033 307.483C223.669 309.939 225.38 313.361 225.901 315.073C226.421 316.784 227.686 319.983 228.727 322.141C229.769 324.299 230.438 326.159 230.29 326.382C229.843 326.755 230.29 327.424 224.339 318.272C221.586 313.957 217.569 307.93 215.561 304.879C202.989 286.277 203.51 286.649 189.302 286.649C183.723 286.649 181.863 286.426 182.086 285.756C182.607 284.417 184.095 284.194 194.509 284.119C203.213 284.045 204.403 284.194 206.486 285.607ZM190.715 292.304C191.831 294.09 190.79 295.95 188.781 295.95C186.178 295.95 184.913 294.239 186.029 292.23C186.996 290.444 189.525 290.444 190.715 292.304ZM195.327 299.67C196.369 302.944 192.054 304.804 190.492 301.828C189.823 300.712 189.897 300.042 190.567 299.224C191.906 297.661 194.807 297.885 195.327 299.67ZM234.753 317.528C236.984 320.728 238.844 323.555 238.844 323.853C238.844 324.076 239.811 325.192 240.927 326.308C247.027 332.112 252.978 343.645 252.978 349.523C252.978 352.871 254.242 353.467 270.831 357.708C288.312 362.172 322.307 366.041 351.541 367.009C358.534 367.232 368.055 367.753 372.742 368.125C377.428 368.497 386.652 369.167 393.198 369.613C413.357 370.952 426.078 373.036 438.054 377.054C441.922 378.319 445.195 379.286 445.344 379.137C445.418 378.988 445.939 377.054 446.311 374.821C449.138 359.568 450.997 351.16 451.89 349.672C452.336 348.928 458.734 349.969 460.147 351.011C460.593 351.309 462.23 351.83 463.866 352.127C465.503 352.425 467.214 352.871 467.586 353.169C468.032 353.541 471.38 354.657 475.025 355.848C478.744 356.964 482.017 358.154 482.463 358.526C482.835 358.898 483.579 359.196 484.1 359.196C484.993 359.196 495.779 363.214 501.06 365.521C502.325 366.116 504.854 367.232 506.788 368.05C508.722 368.943 510.656 369.613 511.028 369.613C511.474 369.613 511.846 369.911 511.846 370.357C511.846 370.729 512.293 371.101 512.813 371.101C514.376 371.101 535.204 381.89 545.99 388.289C551.718 391.637 563.248 399.376 569.199 403.766C573.514 406.891 573.588 407.04 573.142 409.718C572.919 411.206 572.249 413.364 571.728 414.629C571.208 415.82 570.241 418.498 569.497 420.582C566.744 428.32 558.859 445.062 555.661 449.749C554.47 451.461 553.503 453.023 553.503 453.246C553.503 453.544 552.313 455.479 550.825 457.636C541.229 471.327 528.286 483.53 516.31 489.855C514.078 491.045 512.144 492.236 511.995 492.533C511.846 492.905 511.326 493.129 510.879 493.129C510.359 493.129 509.094 493.575 508.053 494.17C505.598 495.435 497.713 497.891 490.274 499.602C485.885 500.644 481.496 500.941 469.817 500.941C452.262 500.941 447.799 500.272 427.789 494.617C424.739 493.724 421.54 492.682 420.722 492.31C419.903 491.938 418.267 491.343 417.002 490.971C413.729 489.929 407.927 487.622 402.869 485.316C400.414 484.2 396.248 482.34 393.57 481.149C390.892 479.959 388.214 478.619 387.619 478.247C387.024 477.801 384.495 476.461 382.04 475.271C379.585 474.006 377.056 472.667 376.461 472.295C373.783 470.658 360.691 462.919 359.501 462.25C355.112 459.794 335.548 446.252 328.481 440.895C328.109 440.597 324.539 437.919 320.67 434.942C316.802 432.04 312.413 428.618 310.926 427.353C309.512 426.088 306.834 423.856 305.049 422.442C303.338 421.028 301.478 419.466 301.032 419.094C300.586 418.647 298.577 417.01 296.569 415.373C294.56 413.736 291.213 410.834 289.13 408.974C287.047 407.114 281.468 402.054 276.782 397.813C272.095 393.572 263.243 385.09 257.069 379.063C250.969 372.961 245.167 367.678 244.2 367.306C243.233 366.934 241.373 366.637 240.109 366.637C238.77 366.637 236.017 365.818 233.935 364.851C231.777 363.884 227.835 362.693 225.082 362.247C221.661 361.726 219.503 360.982 218.313 359.866C216.082 357.782 216.007 356.666 218.239 357.261C222.256 358.452 223.967 358.601 223.967 357.857C223.967 357.41 222.925 356.815 221.586 356.592C216.23 355.401 209.089 350.193 209.089 347.514C209.089 346.249 209.312 346.249 213.404 348.333C217.272 350.342 221.735 351.458 221.735 350.49C221.735 350.118 219.801 349.077 217.421 348.109C211.321 345.728 206.932 341.71 206.337 337.99L205.89 335.014L207.676 336.874C210.056 339.329 212.957 341.189 216.602 342.529C220.619 343.868 220.173 342.306 215.933 340.222C209.61 337.023 204.626 331.219 204.626 327.052C204.626 325.266 205.37 325.341 207.75 327.573C210.279 329.88 220.768 335.386 222.628 335.386C223.446 335.386 224.711 335.758 225.603 336.204C228.058 337.544 230.513 336.427 231.033 333.749C231.331 332.409 232.001 330.177 232.596 328.912C233.637 326.606 233.563 326.234 231.033 321.397C229.62 318.57 228.43 315.742 228.43 315.073C228.43 314.403 228.132 313.659 227.686 313.436C226.868 312.915 226.645 309.864 227.388 309.12C228.058 308.525 230.29 311.055 234.753 317.528ZM97.731 317.007C100.26 319.165 100.26 321.1 97.731 325.862C93.4165 333.823 91.0361 336.799 81.0682 346.696L73.0344 354.583L84.2669 365.669C129.42 410.165 144.967 425.046 146.604 425.269C148.24 425.567 160.737 413.439 160.737 411.578C160.737 411.058 160.96 410.537 161.332 410.537C162.076 410.537 164.977 404.063 165.572 401.013C165.87 399.748 166.242 398.632 166.465 398.632C166.986 398.632 169.366 401.534 171.226 404.435L172.788 406.891L171.152 411.876C169.069 417.903 164.977 424.228 158.952 430.329C153.447 435.91 144 442.532 141.545 442.532C139.76 442.532 128.751 435.314 128.751 434.124C128.751 433.752 129.718 432.636 130.982 431.668C133.511 429.511 134.999 425.195 133.958 423.112C132.991 421.326 130.61 420.656 128.825 421.623C126.593 422.814 126.445 422.665 126.965 419.838C127.635 416.117 126.296 414.778 122.502 415.299L119.452 415.745V412.992V410.165L115.51 410.239C113.427 410.314 110.823 410.909 109.856 411.504L108.145 412.695L109.187 409.57C109.782 407.933 110.079 405.775 109.856 404.882C109.038 401.757 103.98 402.129 99.2932 405.7L96.764 407.635L94.6811 406.072C85.6802 399.004 48.1145 361.949 48.5609 360.61C48.784 360.014 49.8998 359.419 51.09 359.122C64.6286 356.294 87.168 334.642 92.6727 319.165C93.4909 317.082 94.458 315.296 94.9043 315.296C95.425 315.296 96.6896 316.04 97.731 317.007ZM108.74 328.689C112.906 333.154 114.543 335.832 114.171 337.395C113.873 338.585 114.096 338.957 115.063 338.883C116.254 338.734 118.262 340.892 127.635 352.127C128.974 353.764 131.949 357.336 134.255 360.089C136.561 362.768 138.421 365.223 138.421 365.446C138.421 365.669 137.752 366.562 136.933 367.381C136.115 368.199 135.446 369.464 135.446 370.134C135.52 371.25 135.817 371.101 137.305 369.39C138.272 368.274 139.388 367.381 139.76 367.381C140.504 367.381 142.959 370.134 149.207 377.872C151.662 380.923 153.894 383.527 154.117 383.75C154.34 383.973 156.2 386.131 158.208 388.587C160.142 391.042 162.374 393.721 163.118 394.465C163.862 395.283 164.457 396.474 164.457 397.069C164.457 398.929 162.076 404.659 159.547 409.049C156.869 413.587 148.389 423.186 147.05 423.186C146.232 423.186 139.834 417.085 109.187 387.099C93.8629 372.143 78.539 357.633 76.9769 356.741C74.894 355.55 75.4148 354.806 81.4401 349.895C89.6228 343.273 97.9542 331.963 101.227 323.109L102.045 320.951L104.426 323.778C105.765 325.341 107.699 327.573 108.74 328.689ZM282.807 330.475C287.122 331.963 291.585 333.6 292.85 334.27C294.04 334.865 295.527 335.386 296.123 335.386C296.718 335.386 297.759 335.832 298.503 336.353C299.619 337.246 299.544 337.692 297.833 342.454C296.792 345.356 295.453 349.002 294.932 350.639C294.337 352.276 293.519 354.211 293.147 354.88C292.701 355.624 292.403 356.666 292.403 357.261C292.403 359.494 290.915 359.419 275.294 356.22C261.16 353.318 260.863 353.243 261.904 350.788C262.276 349.895 263.243 346.621 264.136 343.57C265.698 338.064 267.26 333.377 268.822 329.136C269.492 327.275 269.864 327.052 272.319 327.499C273.806 327.722 278.493 329.061 282.807 330.475ZM276.707 405.775C276.261 406.965 275.443 409.57 274.922 411.653C274.401 413.662 273.211 417.903 272.319 420.954C269.343 431.073 267.855 436.802 265.624 446.624C265.177 448.633 264.508 451.014 264.136 451.833C263.764 452.651 263.169 455.181 262.723 457.413C262.053 461.208 261.384 464.259 259.673 470.806C259.003 473.187 258.482 473.634 254.689 474.899C248.738 476.982 231.926 476.982 224.339 475.048C217.123 473.187 211.246 471.476 209.461 470.732C208.643 470.434 205.667 469.244 202.766 468.202C194.286 464.928 176.21 456.223 172.342 453.544C167.878 450.345 159.026 444.764 158.506 444.764C158.134 444.764 157.762 444.466 157.613 444.169C157.539 443.871 156.274 442.829 155.009 441.862L152.555 440.225L159.919 433.008C167.358 425.716 171.003 420.433 173.532 413.141C175.168 408.602 175.243 405.403 173.681 403.245C173.011 402.278 172.639 401.459 172.714 401.31C172.862 401.236 175.02 400.789 177.474 400.343C187.07 398.557 192.278 397.144 197.559 394.837C198.377 394.465 201.725 393.349 204.998 392.233C208.271 391.117 211.246 389.926 211.618 389.628C212.065 389.256 212.809 388.959 213.329 388.959C213.85 388.959 217.197 387.843 220.842 386.429C224.413 385.09 232.521 382.262 238.844 380.179L250.374 376.458L263.987 390C277.526 403.468 277.6 403.543 276.707 405.775ZM107.476 405.031C110.005 405.998 103.608 414.555 98.9212 416.489C96.6152 417.457 94.5324 416.564 94.5324 414.629C94.5324 413.141 100.186 407.114 102.864 405.849C105.616 404.435 105.839 404.435 107.476 405.031ZM117.369 412.471C117.964 413.96 116.328 417.01 113.204 420.21C109.633 423.93 107.104 425.418 104.5 425.418C100.186 425.418 100.632 421.326 105.319 417.531C106.806 416.341 108.443 415.001 108.964 414.48C109.559 413.96 110.823 413.364 111.939 413.067C112.98 412.843 114.096 412.323 114.319 411.951C114.989 410.834 116.849 411.206 117.369 412.471ZM124.436 419.094C124.064 421.475 120.568 426.013 117.295 428.394C114.096 430.775 109.856 431.371 109.187 429.585C108.592 428.097 109.41 425.418 110.451 425.418C110.972 425.418 112.683 424.004 114.245 422.368C118.931 417.531 124.957 415.596 124.436 419.094ZM132.172 424.302C132.916 426.237 127.635 432.859 125.329 432.859C124.734 432.859 124.287 433.157 124.287 433.529C124.287 433.901 123.395 434.421 122.279 434.719C119.973 435.24 118.113 433.529 118.857 431.52C120.642 426.46 130.908 420.954 132.172 424.302Z" fill="#2D2D2D" />
<path d="M403.836 79.9466C402.125 81.9555 401.604 83.9645 402.571 85.0806C403.761 86.4944 412.911 86.42 416.258 85.0806C419.234 83.8157 419.531 82.3276 417.374 80.1698C415.291 78.0864 405.547 78.012 403.836 79.9466Z" fill="#2D2D2D"/>
<path d="M406.886 99.2924C405.919 101.897 406.886 106.882 408.522 107.924C410.902 109.412 412.167 107.998 412.167 103.98C412.167 101.897 411.795 99.5156 411.423 98.6972C410.233 96.6138 407.778 96.9114 406.886 99.2924Z" fill="#2D2D2D"/>
<path d="M379.362 102.269C378.767 103.757 378.841 105.171 379.437 107.18C380.999 112.537 384.644 111.421 384.644 105.543C384.644 103.608 384.272 101.673 383.751 101.153C382.189 99.59 380.18 100.111 379.362 102.269Z" fill="#2D2D2D"/>
<path d="M388.512 111.049C384.197 117.373 383.677 120.126 386.355 122.656C388.437 124.665 394.24 127.195 395.579 126.749C397.141 126.079 396.694 125.037 394.463 124.219C392.082 123.4 387.619 119.829 387.619 118.713C387.619 118.266 388.586 116.555 389.702 114.843C391.636 111.942 393.57 107.626 393.57 106.138C393.57 104.426 392.008 105.989 388.512 111.049Z" fill="#2D2D2D"/>
<path d="M426.673 141.184C426.449 141.928 424.59 144.085 422.507 145.946C418.639 149.368 416.258 150.187 408.894 150.484C406.811 150.559 405.1 150.931 404.951 151.303C404.728 151.973 409.712 153.833 411.795 153.833C414.696 153.833 421.837 151.228 423.846 149.443C426.152 147.434 429.276 142.374 429.276 140.663C429.276 139.1 427.193 139.547 426.673 141.184Z" fill="#2D2D2D"/>
</svg>
