<svg width="19" height="25" viewBox="0 0 19 25" fill="none" xmlns="http://www.w3.org/2000/svg">
<path d="M2.17774 25C1.56755 25 1.05205 24.8052 0.631229 24.4157C0.21041 24.0057 0 23.5035 0 22.909V2.09102C0 1.45551 0.21041 0.95326 0.631229 0.584256C1.05205 0.194752 1.56755 0 2.17774 0H9.72093C11.0255 0 12.1617 0.174252 13.1296 0.522756C14.1185 0.850758 14.9286 1.31201 15.5598 1.90652C16.2121 2.48053 16.696 3.17753 17.0116 3.99754C17.3483 4.79705 17.5166 5.65806 17.5166 6.58057C17.5166 7.64658 17.2431 8.58959 16.696 9.4096C16.17 10.2296 15.4862 10.8856 14.6445 11.3776C16.0963 11.9721 17.18 12.7409 17.8953 13.6839C18.6318 14.6064 19 15.7954 19 17.2509C19 18.3784 18.7896 19.4137 18.3688 20.3567C17.948 21.2997 17.3483 22.1197 16.5698 22.8167C15.8123 23.4932 14.9075 24.0262 13.8555 24.4157C12.8034 24.8052 11.6462 25 10.3837 25H2.17774ZM4.35548 9.87085H9.72093C10.773 9.87085 11.6251 9.62485 12.2774 9.13284C12.9507 8.64084 13.2874 7.89258 13.2874 6.88807C13.2874 5.88356 12.9507 5.14555 12.2774 4.67405C11.6251 4.18204 10.773 3.93604 9.72093 3.93604H4.35548V9.87085ZM4.35548 21.064H10.3837C11.6672 21.064 12.7193 20.7462 13.5399 20.1107C14.3605 19.4547 14.7708 18.5014 14.7708 17.2509C14.7708 16.1029 14.3605 15.2419 13.5399 14.6679C12.7193 14.0939 11.6672 13.8069 10.3837 13.8069H4.35548V21.064Z" fill="#2D2D2D"/>
</svg>
