<svg width="36" height="36" viewBox="0 0 36 36" fill="none" xmlns="http://www.w3.org/2000/svg">
<path d="M35.8795 16.8597C35.425 13.2206 33.8989 9.7988 31.4951 7.0291C29.0913 4.2594 25.9184 2.26686 22.3795 1.30468C19.5549 0.434899 16.5341 0.434899 13.7095 1.30468C10.5371 2.17121 7.64923 3.85881 5.33703 6.19734C3.02483 8.53587 1.37005 11.4427 0.539499 14.6247C-0.227469 17.6362 -0.193526 20.796 0.63796 23.7904C1.46945 26.7848 3.06956 29.5097 5.2795 31.6947C5.87642 32.2915 6.65725 32.6695 7.49566 32.7675C8.33407 32.8655 9.18103 32.6778 9.8995 32.2347C10.1852 32.0545 10.4267 31.8123 10.6061 31.526C10.7854 31.2397 10.898 30.9167 10.9355 30.581C10.9729 30.2453 10.9343 29.9054 10.8225 29.5867C10.7107 29.2679 10.5285 28.9784 10.2895 28.7397L9.0745 27.5247C8.93391 27.3852 8.82232 27.2193 8.74616 27.0365C8.67001 26.8538 8.6308 26.6577 8.6308 26.4597C8.6308 26.2617 8.67001 26.0656 8.74616 25.8828C8.82232 25.7 8.93391 25.5341 9.0745 25.3947C9.20826 25.2115 9.37834 25.0579 9.57413 24.9434C9.76991 24.829 9.9872 24.7561 10.2124 24.7293C10.4376 24.7026 10.6659 24.7226 10.8831 24.788C11.1002 24.8534 11.3016 24.9629 11.4745 25.1097C13.5895 27.2247 19.9045 33.5997 19.9045 33.5997C21.0246 34.7264 22.5458 35.363 24.1345 35.3697C25.1442 35.3717 26.1352 35.0967 26.9995 34.5747C30.0506 32.8146 32.5182 30.198 34.0967 27.0491C35.6751 23.9002 36.295 20.3574 35.8795 16.8597ZM21.7195 28.2897C21.3707 27.9426 21.094 27.5301 20.9051 27.0757C20.7163 26.6214 20.6191 26.1342 20.6191 25.6422C20.6191 25.1502 20.7163 24.663 20.9051 24.2086C21.094 23.7543 21.3707 23.3417 21.7195 22.9947C22.4299 22.3082 23.3791 21.9245 24.367 21.9245C25.3549 21.9245 26.3041 22.3082 27.0145 22.9947C27.6531 23.7091 27.994 24.6409 27.9672 25.5988C27.9404 26.5567 27.5479 27.4679 26.8703 28.1455C26.1928 28.8231 25.2815 29.2156 24.3236 29.2424C23.3657 29.2692 22.4339 28.9283 21.7195 28.2897ZM21.3745 10.7997C21.3745 10.004 21.6906 9.24097 22.2532 8.67836C22.8158 8.11575 23.5789 7.79968 24.3745 7.79968C24.9678 7.79968 25.5479 7.97562 26.0412 8.30527C26.5346 8.63491 26.9191 9.10345 27.1461 9.65163C27.3732 10.1998 27.4326 10.803 27.3169 11.3849C27.2011 11.9669 26.9154 12.5014 26.4958 12.921C26.0763 13.3406 25.5417 13.6263 24.9598 13.742C24.3778 13.8578 23.7746 13.7984 23.2265 13.5713C22.6783 13.3443 22.2097 12.9597 21.8801 12.4664C21.5504 11.973 21.3745 11.393 21.3745 10.7997ZM26.9095 19.7997C26.5121 19.3732 26.2957 18.809 26.306 18.2261C26.3163 17.6432 26.5524 17.0871 26.9646 16.6748C27.3769 16.2626 27.933 16.0264 28.5159 16.0162C29.0988 16.0059 29.663 16.2222 30.0895 16.6197C30.3106 16.8257 30.4879 17.0741 30.6108 17.3501C30.7338 17.6261 30.7999 17.924 30.8053 18.2261C30.8106 18.5282 30.755 18.8283 30.6419 19.1085C30.5287 19.3886 30.3603 19.6431 30.1466 19.8568C29.933 20.0704 29.6785 20.2389 29.3983 20.352C29.1181 20.4652 28.818 20.5208 28.5159 20.5155C28.2138 20.5101 27.9159 20.444 27.6399 20.321C27.3639 20.198 27.1155 20.0207 26.9095 19.7997ZM17.4745 7.07968C17.8937 7.49937 18.1791 8.03392 18.2946 8.61577C18.4101 9.19763 18.3505 9.80066 18.1233 10.3486C17.8962 10.8966 17.5116 11.365 17.0184 11.6945C16.5251 12.024 15.9452 12.1998 15.352 12.1998C14.7588 12.1998 14.1789 12.024 13.6856 11.6945C13.1924 11.365 12.8078 10.8966 12.5807 10.3486C12.3535 9.80066 12.2939 9.19763 12.4094 8.61577C12.5249 8.03392 12.8103 7.49937 13.2295 7.07968C13.5081 6.80075 13.839 6.57947 14.2032 6.4285C14.5674 6.27753 14.9578 6.19982 15.352 6.19982C15.7462 6.19982 16.1366 6.27753 16.5008 6.4285C16.865 6.57947 17.1959 6.80075 17.4745 7.07968Z" fill="#FAFAFA"/>
</svg>
