<svg width="35" height="35" viewBox="0 0 35 35" fill="none" xmlns="http://www.w3.org/2000/svg">
<path d="M9.375 8.75C9.87027 8.74353 10.3434 8.5439 10.6937 8.19367C11.0439 7.84343 11.2435 7.37027 11.25 6.875V1.875C11.25 1.37772 11.0525 0.900805 10.7008 0.549175C10.3492 0.197544 9.87228 0 9.375 0C8.87772 0 8.40081 0.197544 8.04917 0.549175C7.69754 0.900805 7.5 1.37772 7.5 1.875V6.875C7.50647 7.37027 7.7061 7.84343 8.05633 8.19367C8.40657 8.5439 8.87973 8.74353 9.375 8.75Z" fill="#FFA039"/>
<path d="M25.625 8.75C26.1203 8.74353 26.5934 8.5439 26.9437 8.19367C27.2939 7.84343 27.4935 7.37027 27.5 6.875V1.875C27.5 1.37772 27.3025 0.900805 26.9508 0.549175C26.5992 0.197544 26.1223 0 25.625 0C25.1277 0 24.6508 0.197544 24.2992 0.549175C23.9475 0.900805 23.75 1.37772 23.75 1.875V6.875C23.7565 7.37027 23.9561 7.84343 24.3063 8.19367C24.6566 8.5439 25.1297 8.74353 25.625 8.75Z" fill="#FFA039"/>
<path d="M31.3504 3.79922C31.2612 3.78671 31.1703 3.79363 31.084 3.81952C30.9977 3.84541 30.918 3.88966 30.8504 3.94922C30.7807 4.00731 30.7244 4.07989 30.6856 4.16192C30.6467 4.24395 30.6262 4.33346 30.6254 4.42422V6.92422C30.6254 8.25031 30.0986 9.52208 29.161 10.4598C28.2233 11.3974 26.9515 11.9242 25.6254 11.9242C24.2993 11.9242 23.0276 11.3974 22.0899 10.4598C21.1522 9.52208 20.6254 8.25031 20.6254 6.92422V4.42422C20.6323 4.33804 20.6213 4.25136 20.593 4.16966C20.5647 4.08797 20.5198 4.01303 20.461 3.94959C20.4023 3.88615 20.331 3.83559 20.2517 3.8011C20.1725 3.76661 20.0869 3.74895 20.0004 3.74922H15.0004C14.8347 3.74922 14.6757 3.81507 14.5585 3.93228C14.4413 4.04949 14.3754 4.20846 14.3754 4.37422V6.87422C14.3754 8.20031 13.8486 9.47208 12.911 10.4098C11.9733 11.3474 10.7015 11.8742 9.37542 11.8742C8.04934 11.8742 6.77757 11.3474 5.83988 10.4098C4.9022 9.47208 4.37542 8.20031 4.37542 6.87422V4.37422C4.37466 4.28346 4.35413 4.19395 4.31528 4.11192C4.27642 4.02989 4.22016 3.95731 4.15042 3.89922C4.08281 3.83966 4.00313 3.79541 3.91683 3.76952C3.83053 3.74363 3.73965 3.73671 3.65042 3.74922C2.61976 3.92231 1.68511 4.45862 1.01561 5.26111C0.346104 6.06359 -0.0140153 7.07923 0.000417581 8.12422V30.6242C0.00698033 31.7825 0.470024 32.8915 1.28908 33.7106C2.10813 34.5296 3.21712 34.9927 4.37542 34.9992H30.6254C31.7837 34.9927 32.8927 34.5296 33.7118 33.7106C34.5308 32.8915 34.9939 31.7825 35.0004 30.6242V8.12422C35.0029 7.08779 34.6374 6.08414 33.9689 5.29207C33.3005 4.50001 32.3725 3.97097 31.3504 3.79922ZM23.1254 24.3742H20.0004C19.8347 24.3742 19.6757 24.4401 19.5585 24.5573C19.4413 24.6745 19.3754 24.8335 19.3754 24.9992V28.1242C19.3754 28.6215 19.1779 29.0984 18.8262 29.45C18.4746 29.8017 17.9977 29.9992 17.5004 29.9992C17.0031 29.9992 16.5262 29.8017 16.1746 29.45C15.823 29.0984 15.6254 28.6215 15.6254 28.1242V24.9992C15.6254 24.8335 15.5596 24.6745 15.4424 24.5573C15.3252 24.4401 15.1662 24.3742 15.0004 24.3742H11.8754C11.3781 24.3742 10.9012 24.1767 10.5496 23.825C10.198 23.4734 10.0004 22.9965 10.0004 22.4992C10.0004 22.0019 10.198 21.525 10.5496 21.1734C10.9012 20.8218 11.3781 20.6242 11.8754 20.6242H15.0004C15.1662 20.6242 15.3252 20.5584 15.4424 20.4412C15.5596 20.324 15.6254 20.165 15.6254 19.9992V16.8742C15.6254 16.3769 15.823 15.9 16.1746 15.5484C16.5262 15.1968 17.0031 14.9992 17.5004 14.9992C17.9977 14.9992 18.4746 15.1968 18.8262 15.5484C19.1779 15.9 19.3754 16.3769 19.3754 16.8742V19.9992C19.3754 20.165 19.4413 20.324 19.5585 20.4412C19.6757 20.5584 19.8347 20.6242 20.0004 20.6242H23.1254C23.6227 20.6242 24.0996 20.8218 24.4512 21.1734C24.8029 21.525 25.0004 22.0019 25.0004 22.4992C25.0004 22.9965 24.8029 23.4734 24.4512 23.825C24.0996 24.1767 23.6227 24.3742 23.1254 24.3742Z" fill="#FFA039"/>
</svg>
