<svg width="27" height="27" viewBox="0 0 27 27" fill="none" xmlns="http://www.w3.org/2000/svg">
<path d="M27 8.19643C26.995 7.81437 26.841 7.44936 26.5708 7.17917C26.3006 6.90899 25.9356 6.755 25.5536 6.75H20.25C20.1221 6.75 19.9995 6.6992 19.9091 6.60878C19.8187 6.51836 19.7679 6.39573 19.7679 6.26786C19.7679 4.60552 19.1075 3.01126 17.932 1.83581C16.7566 0.660362 15.1623 0 13.5 0C11.8377 0 10.2434 0.660362 9.06796 1.83581C7.89251 3.01126 7.23214 4.60552 7.23214 6.26786C7.23214 6.39573 7.18135 6.51836 7.09093 6.60878C7.00051 6.6992 6.87787 6.75 6.75 6.75H1.44643C1.06281 6.75 0.694907 6.90239 0.423649 7.17365C0.152391 7.44491 0 7.81281 0 8.19643C0 8.58005 0.152391 8.94795 0.423649 9.21921C0.694907 9.49047 1.06281 9.64286 1.44643 9.64286H3.375C3.50287 9.64286 3.62551 9.69365 3.71593 9.78407C3.80635 9.87449 3.85714 9.99713 3.85714 10.125V24.1071C3.85714 24.8744 4.16193 25.6102 4.70444 26.1527C5.24696 26.6952 5.98277 27 6.75 27H20.25C21.0172 27 21.753 26.6952 22.2956 26.1527C22.8381 25.6102 23.1429 24.8744 23.1429 24.1071V10.125C23.1429 9.99713 23.1937 9.87449 23.2841 9.78407C23.3745 9.69365 23.4971 9.64286 23.625 9.64286H25.5536C25.9356 9.63786 26.3006 9.48387 26.5708 9.21369C26.841 8.9435 26.995 8.57849 27 8.19643ZM10.125 6.26786C10.125 5.37275 10.4806 4.51431 11.1135 3.88137C11.7465 3.24844 12.6049 2.89286 13.5 2.89286C14.3951 2.89286 15.2536 3.24844 15.8865 3.88137C16.5194 4.51431 16.875 5.37275 16.875 6.26786C16.875 6.39573 16.8242 6.51836 16.7338 6.60878C16.6434 6.6992 16.5207 6.75 16.3929 6.75H10.6071C10.4793 6.75 10.3566 6.6992 10.2662 6.60878C10.1758 6.51836 10.125 6.39573 10.125 6.26786ZM11.0893 21.2143C11.0893 21.5979 10.9369 21.9658 10.6656 22.2371C10.3944 22.5083 10.0265 22.6607 9.64286 22.6607C9.25924 22.6607 8.89134 22.5083 8.62008 22.2371C8.34882 21.9658 8.19643 21.5979 8.19643 21.2143V13.5C8.19643 13.1164 8.34882 12.7485 8.62008 12.4772C8.89134 12.206 9.25924 12.0536 9.64286 12.0536C10.0265 12.0536 10.3944 12.206 10.6656 12.4772C10.9369 12.7485 11.0893 13.1164 11.0893 13.5V21.2143ZM19.2857 21.2143C19.2857 21.5979 19.1333 21.9658 18.8621 22.2371C18.5908 22.5083 18.2229 22.6607 17.8393 22.6607C17.4557 22.6607 17.0878 22.5083 16.8165 22.2371C16.5452 21.9658 16.3929 21.5979 16.3929 21.2143V13.5C16.3929 13.1164 16.5452 12.7485 16.8165 12.4772C17.0878 12.206 17.4557 12.0536 17.8393 12.0536C18.2229 12.0536 18.5908 12.206 18.8621 12.4772C19.1333 12.7485 19.2857 13.1164 19.2857 13.5V21.2143Z" fill="#FFA039"/>
</svg>
