<svg display="block" version="1.0" viewBox="0 0 411 437">
            <g fill="var(--text-heading)">
              <path
                d="M363.3 15.3C358.5 19.8 353 28 354.8 28c.5 0 2.8-2.7 5.1-6 2.3-3.2 5.3-6.8 6.8-8 1.4-1.1 2.3-2.3 2-2.6-.3-.3-2.7 1.4-5.4 3.9zM367.5 20.3c-4.1 3.9-7.5 7.8-7.5 8.5 0 .8.4 1.2.8 1 1.7-.7 16.4-16.8 15.4-16.8-.7 0-4.5 3.3-8.7 7.3zM344.2 21.7c-1.9 5-2.2 7.9-1.1 11.6 1.5 5.6 2.4 4.5 2.4-3 0-3.8.4-7.8.8-9.1.5-1.3.4-2.2-.1-2.2s-1.4 1.2-2 2.7zM372.9 23.9c-5.1 3.3-10.5 8.8-9.6 9.7.4.4 2.8-1.3 5.4-3.7 2.7-2.4 5.9-5.1 7.3-6 1.4-.9 2.2-2 1.9-2.3-.3-.3-2.5.7-5 2.3zM373.7 31.1c-6.6 4.3-12.6 12.9-25.2 35.7-14.3 25.9-19.5 34.2-33.3 53.5-6.3 8.9-11.9 16.8-12.5 17.4-.6.9-.6 1.3.1 1.3 1.6 0 15.1-17.5 24.7-32 4.6-6.9 13.4-21.7 19.5-33 17.9-32.7 20.3-36.2 30.5-43.7 4.5-3.4 1.5-2.7-3.8.8zM335.3 51.7c-4.3 5.9-13 18-19.3 26.8-6.3 8.8-13.6 18.8-16.3 22.3-2.7 3.5-4.6 6.6-4.2 7 .9.9 4.3-3.3 18.7-23.3 6.7-9.4 16.5-22.6 21.6-29.4 6-7.9 9-12.7 8.4-13.3-.6-.6-3.8 3-8.9 9.9zM112 58.3c-6 1.7-10.5 4.5-16 10.1-4.8 5-6.7 5.5-14.5 3.4-3.8-1-5-1-8 .5-2 1-6 1.7-9.3 1.7-7.1 0-12.7 2.5-17 7.4-3.7 4.3-3.8 4.7-1.4 6.9 2.2 2 8 2.3 67.7 3.2l43 .7 4.5-2.4c2.9-1.5 5.2-3.6 6.5-6 1.8-3.4 1.9-4 .5-8-2.1-5.9-7-9.2-12.5-8.3-2.2.4-5.4.9-7.1 1.2-2.4.4-3.9-.2-7.5-3.3-2.4-2-6.3-4.5-8.6-5.6-5.5-2.4-14.7-3.1-20.3-1.5zm19.3 5.5c2.4 1.1 6.2 3.5 8.3 5.5 5 4.4 7.3 5.1 11.7 3.2 5.2-2.1 8.4-1.9 11.2 1 4.6 4.5 3 11.1-3.4 13.8-2.7 1.1-39.4 1.1-85.6-.2-23-.6-24-.7-24-2.6 0-3.3 6-6.5 12.4-6.5 3.1 0 7.7-.8 10.4-1.7 4-1.4 5.4-1.5 9.2-.5 8.2 2.2 10.1 1.7 16.3-4.2 3.1-2.9 6.8-5.9 8.2-6.6 8.2-4.3 17.2-4.8 25.3-1.2zM247 61.1c-10.2 3.6-35.7 16.6-39.9 20.4-5.1 4.6-4.4 6.8 2.9 8.5 3.9.9 5 1.6 5 3.1 0 2.9 4 3.9 13 3.2l8-.6v3c0 5.8 5.2 7.8 12.3 4.8 6-2.5 6-2.5 5.5 8.5-.3 5.5-.1 10 .3 10 1.4 0 2.4-5.2 2.4-13.2 0-5.3.4-7.9 1.3-8.3 1.3-.5 1.7-3.5.4-3.5-.4 0-1.3.5-1.9 1.1-.6.6-2.1.9-3.4.7-3.3-.4-4.1-5.7-1-6.5 2.6-.7 2.6-.7-.4-3.7-4.2-4.2-3.4-6 6.3-12.5 4.8-3.2 9.8-7 11.1-8.5 2.4-2.6 2.4-2.6.5-4.2-5.9-4.7-13.3-5.5-22.4-2.3zm5.8 5.4c-3.1.8-8.7 2.8-12.4 4.5-7 3.2-9.6 3.8-7.7 1.9 2.3-2.3 17.9-7.9 21.8-7.8 3.9.1 3.9.1-1.7 1.4zM364.6 72.1c-7.7 20.9-17.8 41.1-34.3 68.8-7.5 12.7-9.5 17.9-2.7 7.4 12.7-19.7 24.4-41 30.9-56.3 5.5-12.6 10.6-27.1 10.3-28.9-.2-.8-2 3.2-4.2 9z"
              />
              <path
                d="M270.1 70c-3.9 3.2-9.8 7.8-13.1 10.1l-5.9 4.2 2 2.8c3 4.2 5.9 5.9 10.2 5.9 5.2 0 11.3-5.6 10.3-9.5-.5-1.9-.3-2.3.9-1.9.8.4 1.5 1.1 1.5 1.7 0 .6 1.2 2.4 2.7 3.9 1.5 1.5 2.1 2.8 1.5 2.8-.7 0-1.2.7-1.2 1.5 0 2 1.5 1.9 3.6-.2 1.6-1.6 1.5-1.9-2.1-5-3.8-3.2-3.8-3.3-1.2-3.3 1.4 0 3.2-.2 4-.5.9-.4 2.3 1.6 4.6 6.5 3.9 8.5 3.7 12.5-1 16.4-5.2 4.4-11 5.2-20.6 2.9-4.4-1-2.3 1.7 2.2 2.9 4.4 1.2 4.5 1.3 4.5 5.3 0 4.9 1.8 11.7 2.9 11 .5-.2.5-2.4 0-4.7-.4-2.4-.8-5.8-.9-7.6 0-2.8.3-3.2 2.7-3.2 4.1 0 11.3-3.9 13.4-7.4 2.7-4.4 2.4-9.1-1.2-16.6-2-4.2-3.1-8.3-3.2-11.6-.3-5.7-4.3-12.4-7.6-12.4-1 0-5.1 2.7-9 6zm11.8 2.6c.2.2.2.7-.2 1-.8.9-6.7-.6-6.7-1.7 0-.8 5.9-.2 6.9.7zM278 77c1.1.7.7 1-1.7 1-1.7 0-3.5-.5-3.8-1-.8-1.3 3.5-1.3 5.5 0zm-10 6c.8.5 1.1 1 .5 1.1-2.4.3-6.1-.3-6.9-1.2-1.3-1.2 4.5-1.2 6.4.1zm-2 5c0 .5-.9 1-1.9 1-1.1 0-2.3-.5-2.6-1-.4-.6.5-1 1.9-1s2.6.4 2.6 1z"
              />
              <path
                d="M265 95.9c0 3.7 2.3 8.3 4.6 9.1 3 1.2 6.9-.2 8.4-3 1.4-2.6 1.9-2.1-5.4-5.4-6.9-3.1-7.6-3.2-7.6-.7zm7.4 2.7c3.8 1.3 4.5 1.9 3.5 3-.6.8-2.4 1.4-3.9 1.4-2.2 0-3-.6-3.9-3-.5-1.7-.9-3-.7-3 .1 0 2.4.7 5 1.6zM360.1 114c-4 8-12 22.7-17.8 32.8-5.7 10-10.3 18.8-10.1 19.4.7 2 16.4-24.6 26.5-44.9 5.2-10.5 9.3-19.7 9.1-20.5-.3-.7-3.7 5.2-7.7 13.2zM224.5 104.9c-6.5 3.2-5.7 4.1 1.2 1.5 5.9-2.3 7.7-1.4 6.9 3.4-1.4 7.9-1.5 7.9-7.1 5.6-1.8-.7-1.8-.6-.6.9.7.9 2.2 1.7 3.2 1.7 1.6 0 1.8.5 1.3 2.6-1.1 4.4 1.6 2.4 3.7-2.6 3-7.5 2.2-16-1.5-16-.6 0-3.8 1.3-7.1 2.9zM285.6 114.8c-6.3 6.3-8.4 9.2-6.6 9.2.6 0 3.6-2.7 6.8-6.1 6.4-6.9 7-6.7 7.2 3.1.1 8.4 2.5 20.3 5.3 26.4l2.6 5.5-7.2 5.4c-8.3 6.2-15.7 11-16.3 10.5-.2-.2.3-2.6 1.1-5.3 1.7-5.6 1.9-7.3.6-5.9-.5.5-1.6 3.4-2.6 6.4-2.6 8.2-14.2 34.1-17.6 39.5-1.7 2.6-2.8 4.9-2.6 5.2 1.1 1 7.1-9.2 12.4-21 4.6-10.4 6.4-13.4 8.7-14.6C282 170.6 304 154 304 153c0-.5-.9-2.4-1.9-4.2-3.3-5.7-5.1-12.6-6.6-25.6-.8-7-1.5-13-1.5-13.4 0-2.1-3.1-.2-8.4 5zM207.9 115.3c-16 7-30.4 16.6-43.7 29.1-3.8 3.6-7.8 6.6-8.9 6.6-6.1 0-24.3 9.1-24.3 12.2 0 .5 3.2 2.4 7.1 4.1l7.1 3.2-.6 4.5c-.4 2.5-1.1 4.7-1.7 4.9-3.4 1.1-9.4 7-9.7 9.4-.6 4.6 4.2 11.4 11 15.8 11.1 7.1 16.6 6.5 19.4-2.5 1.3-4.1 2.3-5.6 3.8-5.8 1.5-.3-.3-1.5-5.9-4.1-8.5-4.1-11.9-6.6-14.1-10.9-2.7-5.2-1.5-5.8 2.6-1.4 4.2 4.6 12.7 9.6 19.8 11.7 2.3.7 4.2 1.4 4.2 1.5 0 .2-3.6 5.1-8 10.9-14.2 19-24.4 37-27.4 48.5-2.2 8.6-.5 8.2 2.4-.6 7.4-21.7 25.8-49.1 51.4-76.1 3.8-4 6.3-7.3 5.6-7.3-.6 0-4.4 3.4-8.3 7.6l-7.1 7.6-1.6-2.3c-.8-1.3-3.5-4.6-6-7.2l-4.4-4.9-4.8 5.4c-5.6 6.3-6.4 4.7-1.2-2.4 4.2-5.7 4.2-5.7-5.8-10.6l-5.7-2.8 3.8-4.4 3.8-4.4 10.2 8.8c5.6 4.8 11.4 10.6 12.8 12.7 1.4 2.1 2.9 3.9 3.3 3.9.5 0 2.7-2.3 5-5l4.2-5-4-5.3c-4.3-5.7-12.2-12.2-19.1-15.7-3.7-1.9-4.2-2.4-3-3.4.8-.6 4.2-3.2 7.4-5.7 3.3-2.5 9.1-6.5 13-8.8l7-4.2.8 3c.7 2.8 6.2 7.9 7.3 6.8.3-.3-.5-1.3-1.9-2.1-2.2-1.5-4.7-5.5-4.7-7.5 0-1.3 15.9-8.3 17.5-7.7 2 .7 1.9 4.6-.4 11.1-2.2 6.3-.9 8.7 1.6 2.8 2.2-5.1 2.9-13.9 1.3-15.8-1.7-2.1-2.4-1.9-11.1 1.8zm-58.5 44.9c-2.5 3.5-4.7 6.5-4.9 6.6-.5.5-9.5-3.6-9.5-4.2 0-1.1 15.4-8.3 18.2-8.5.5-.1-1.3 2.7-3.8 6.1zm-8.7 29.2c2.6 4 9.2 9.6 15.1 12.6 4.8 2.5 5 4.4.4 4.8-5.5.6-15.6-5.9-18.8-12-2-3.9-1.8-8.8.5-8.8.3 0 1.6 1.5 2.8 3.4z"
              />
              <path
                d="M236.6 121.6c-10.4 3.8-36.5 25.3-41.1 33.8-1.6 3-1.7 3.8-.6 5.8 3.8 6.8 30.1 23.8 30.1 19.5 0-.7-2.8-2.7-6.2-4.4-7.3-3.5-18.3-11.5-20.4-14.8-2.1-3.2-.7-6 6.7-14 7.5-8 21-18.3 29.5-22.5 9.8-4.8 17.1-4 19 2.3 1.2 4 5.3 8.5 8.8 9.7 3.9 1.3 9.7.2 10.4-2 .4-1 0-1.1-1.4-.5-3.3 1.6-9.2 1-11.5-1-1.2-1.1-3-3.9-4.1-6.2-1-2.3-2.8-4.9-4.1-5.8-2.7-1.9-9.9-1.8-15.1.1zM134.2 144.7c-29.6 31.3-65.9 77.1-92.8 116.9C31.3 276.5 30 279 31.9 279c1.3 0 4.5-4.3 23.6-31.5 34.3-48.8 64.4-86.4 87.4-109 5.9-5.7 7.1-7.5 5.2-7.5-.5 0-6.8 6.2-13.9 13.7zM90.8 166.2C82.5 177 74.3 188.5 64 204c-4.6 6.9-11.4 16.9-15.2 22.2-3.7 5.3-6.8 9.9-6.8 10.2 0 .3.6.6 1.3.6 1.5-.1.3 1.5 23.7-33 16.3-24.1 26.6-38.8 31.3-44.8.6-.8.6-1.2-.1-1.2-.6 0-3.9 3.7-7.4 8.2zM291.7 189.3c-4.2 5.1-10.9 12.7-14.8 17-3.9 4.4-6.7 8.2-6.4 8.5 1.6 1.6 30.2-31.3 29.4-33.7-.2-.5-3.9 3.2-8.2 8.2zM211.1 188.5C197.5 203.1 167 240.1 167 242c0 .5.5 2.1 1.1 3.7.7 2 .7 4.5-.1 9-1.4 7.1-.8 10.3 1 5.8 1.9-5 2.7-10.8 1.8-14.9-.8-3.8-.8-3.9 12.9-21 7.6-9.4 18.4-22.7 24.1-29.5 5.7-6.7 10.1-12.5 9.9-12.7-.2-.3-3.2 2.5-6.6 6.1zM119.4 193.2C106.5 208.5 87 235.9 87 238.7c0 3 2.2.6 10.5-12 9.6-14.4 17.4-24.9 25.3-34.2 2.9-3.3 5.2-6.3 5.2-6.8 0-2-2.2 0-8.6 7.5z"
              />
              <path
                d="M216.6 189.4c-2 2.3-3.6 4.5-3.6 4.8 0 .8 20.8 18.9 27.3 23.8 3.9 2.9 5.7 4.9 5.3 5.9-6.4 20.1-10.3 24.2-21.1 22.2-6.3-1.2-20.4-6.6-30.7-11.7-6.8-3.4-8.8-4-8.8-2.6 0 1.2 10.7 6.7 23 11.8 8.8 3.6 13.2 4.8 18.5 5.2 6.6.4 7.3.2 10.3-2.3 3.8-3.2 6.3-7.7 8.5-15.5.9-3.1 3.6-8.2 6.3-11.8 2.7-3.6 4.3-6.7 3.8-7.2-5-4.6-33.2-27-34.1-27-.6 0-2.8 2-4.7 4.4zM117.2 221.2c-8.8 11.7-21.2 27.1-27.6 34.3-12.8 14.4-17.9 21.3-20.1 27.6-3.7 10.4-.6 16.9 8.2 16.9 5.4 0 10.6-2.1 18.4-7.4 3-2 5.7-3.6 6.1-3.6 2.1 0 .3 4.4-4.4 11-11 15.1-13.9 19.6-14.8 22.9-1.7 6 2.1 9.7 8.2 8.1 5.6-1.6 10.9-7.1 16.7-17.3 3-5.3 7.2-11.3 9.2-13.3l3.8-3.7 1.1 2.9c.5 1.6 1.4 3.6 1.9 4.4 1.1 2.1 5.8 2.4 8.5.7 2.7-1.8 15.1-23 13.7-23.5-2.4-.8-7.6-4.9-9.5-7.5-1.7-2.4-2.1-4.2-2-11 0-6.8.7-10.2 4.1-20.3 2.3-6.7 6-16 8.3-20.8 2.3-4.9 4-8.9 3.8-9.1-.2-.1-2.7-1.3-5.6-2.5-3.1-1.3-6.7-3.9-8.7-6.2l-3.4-4-15.9 21.4zM290.1 212.4c-8.5 9.9-10.9 14.8-4 8.1 4.3-4.2 13.9-15.9 13.9-16.9 0-2-2.7.5-9.9 8.8zM282.2 236c-16.1 1.4-34.1 5.5-35.8 8.2-.5.7.1.9 1.7.5 28.4-6.5 52.4-8.1 69.3-4.5 10.2 2.1 16.6 7.2 16.6 13.1 0 13.1-16.7 47.6-34.4 71-4.9 6.6-5.2 6.8-8.5 6.2-4.1-.8-9.5-3.5-13.4-6.7l-2.8-2.3 3.9-7c2.1-3.9 5.7-9.9 8-13.4s4.2-7.1 4.1-8c0-1.4-.2-1.3-1.2.2-.7 1-3.8 5.5-7 10-7.9 11-10 15.3-9.4 19.1.3 2.3-1.1 6-5.5 15.2-5.2 10.5-5.8 12.5-4.8 14.3 1.4 2.8 5.2 4.2 9 3.4 3.2-.6 7.3-4.9 15-16 3-4.3 5.1-6.3 7-6.6 5.5-1.1 18.4-19.5 30.5-43.3 7.1-13.9 11.5-26.4 12.2-34.6.6-5.6.5-5.8-3.3-9.6-8.5-8.5-24.6-11.3-51.2-9.2zm-1.2 93.5c2.7 1.4 5.6 2.5 6.5 2.5.8 0 1.5.2 1.5.5s-3.7 5-8.1 10.5c-6.6 8.1-8.7 10-10.8 10-3.1-.1-6.4-2.3-5.2-3.6.5-.5 3-5.7 5.6-11.7 2.6-5.9 4.9-10.7 5.2-10.7.2 0 2.6 1.1 5.3 2.5z"
              />
              <path
                d="M145.1 248.9c-2.3 4.5-5.1 14.2-5.1 17.8 0 3.7 1.9 2.6 2.5-1.5.3-2 1.7-7.3 3.1-11.6 1.3-4.3 2.2-8.1 2-8.3-.3-.3-1.4 1.3-2.5 3.6zM148 254.7c-2.4 7.4-4 24-2.3 23 .6-.4 1.3-4 1.7-8.1.6-6.8 2.4-15.4 4.1-19.9.4-.9.3-1.7-.4-1.7-.5 0-2 3-3.1 6.7zM155.9 252.1c-2.2 4.1-3.9 12.3-3.9 18.6 0 7.9 1.7 8.2 2.4.5.4-3.1 1.3-9 2.1-13.1 1.6-7.9 1.4-9.7-.6-6zM221.1 273.1c-16 22.7-33.5 40.3-87.9 88.4-28.9 25.5-28.9 25.5-32.8 25.5-6.5 0-6.8.6 17.4-44 5.2-9.6 14.6-26.6 20.8-37.7 6.3-11.1 11.4-20.5 11.4-20.8 0-4.1-16.5 24.3-43.9 75.6-7.2 13.6-13.1 25.2-13.1 25.8 0 1.9 6.5 4.4 9.4 3.7 6.1-1.5 73.9-61.6 93.4-82.7 15.7-17.1 32.1-38.2 30.4-39.3-.5-.3-2.8 2.2-5.1 5.5zM279 289.1c-16.6 4.6-32.4 7.2-44.2 7.3-11 .1-13.7 1-7.1 2.2 12.4 2.3 68.3-7.2 68.3-11.7 0-1.6-6.2-.8-17 2.2zM55.4 310.3c-7 5.2-19.2 18-20.9 22.1-.7 1.6-1 3.7-.7 4.8 1.3 5 10.4 6.5 16.3 2.5 6.9-4.6 16.4-22.6 15.7-29.7-.5-5.1-3.2-5-10.4.3zM206.2 323.6c-15.4 13.3-47.2 43.2-47.2 44.5 0 .5.3.9.6.9.8 0 11.4-9.4 32.3-28.9 29.8-27.6 29.2-27.1 27.4-27.1-.5 0-6.3 4.8-13.1 10.6zM238.5 331.1c-9.3 8.9-23.4 22-31.2 29.2-12.7 11.6-17.1 16.4-12.9 14 4-2.3 29.2-24.9 44.8-40.2 16.3-15.9 19.2-19.2 17.1-19.1-.5.1-8.4 7.3-17.8 16.1zM67.1 336.5c-4 3.6-8.8 13-9.8 19-.6 4 1.3 5.5 5 3.8 3.6-1.7 14.6-11.4 16.7-14.9 5.9-9.5-3.3-15.6-11.9-7.9zM26 348.2c-7.9 4.1-10.3 13.8-3.4 13.8 8.5 0 17.5-11.7 11.5-15-2.7-1.4-3.1-1.3-8.1 1.2zM257.2 354.3c-2.7 2.8-2.7 5-.2 10.2 1.6 3.4 1.8 5.4 1.3 13-1 15.9 4 22 9.1 11.1 4.1-8.6 7.1-23.6 4.8-23.6-.5 0-1.6 3.8-2.5 8.4-1.8 9.1-5 17.6-6.6 17.6-1 0-1.3-1.1-2.6-7.3-.2-1.1.1-4.6.6-7.8.8-5.2.7-6.6-1.1-10.6-2.6-5.8-2.5-8.1.2-11 1.6-1.7 1.8-2.3.6-2.3-.8 0-2.4 1-3.6 2.3zM217.1 384.7c-19 19.9-21.9 23.3-19.9 23.3 1.7.1 38.8-37.9 38.8-39.7 0-.7-.4-1.3-.9-1.3s-8.6 8-18 17.7zM46 370c-2.5 2.5-3.6 6.8-2.1 8.3 2.5 2.5 12.1-5.3 10.7-8.8-.8-2.2-6.2-1.9-8.6.5zM136.1 387c-14.5 11.7-21.9 18.6-20.9 19.5.7.7 35-27.5 35.6-29.3.7-2.3-1.4-.9-14.7 9.8zM167.4 394.9c-26 22.9-26.8 23.7-25.8 24.4 1.8 1.1 44.7-37.2 43.3-38.7-.3-.3-8.2 6.1-17.5 14.3zM321.6 388.5c-2.7 1.9-5.6 3.5-6.3 3.5-.8 0-3.7-1.2-6.5-2.6-9.2-4.7-17.9-3.3-22.5 3.5-4.8 7.1-3.4 15.3 3.1 18.9 3.4 1.9 12.8 1.9 66.1.3 27.8-.9 32.1-1.5 35.4-5.4 1.7-2.1 1.8-6.4.2-8-.7-.7-4.6-1.4-8.9-1.8-5.6-.4-9.7-1.4-15.2-3.9-6.9-3-7.9-3.2-15-2.6-6.9.6-8 .4-13.8-2.4-8.2-3.8-10.6-3.8-16.6.5zm15.2 1.5c5.6 2.7 7.4 3 15.5 3 8.2 0 9.9.3 15.7 3.1 4.8 2.3 8.4 3.3 13.8 3.7 7.7.5 8.7 1.1 7.7 4.1-1.2 3.8-7.4 5.1-24.6 5.1-8.8 0-28.2.5-43.1 1.1-29.5 1.2-31.1 1-34.1-4-6.8-11.6 6.6-21.6 19.7-14.6 6.5 3.4 9.8 3.2 15.3-1 2.5-1.9 5.3-3.5 6.2-3.5.9 0 4.5 1.4 7.9 3zM87.5 391.5c-2 1.9-2.5 3.5-2.5 7.1 0 3-.9 6.6-2.6 9.9-1.7 3.6-2.4 6.5-2.2 9.1.4 5.5 2.9 5.6 7.9.4 3.6-3.7 9.9-13.4 9.9-15.3 0-1.7-1.7-.5-3.4 2.5-3 5.3-9.6 13.8-10.6 13.8-1.9 0-1-6.5 1.5-10.5 1.7-2.9 2.4-5.5 2.5-9.2 0-4.3.4-5.5 2.5-7.1 1.4-1.1 2.5-2.3 2.5-2.6 0-1.5-3.3-.4-5.5 1.9zM218.1 411.1c-13.2 13.6-15.7 18.1-4.6 8.3 10.9-9.7 21.2-21.9 17.8-21.3-.5.1-6.4 6-13.2 13zM182.6 419.1c-5.2 4.8-6.7 6.9-4.8 6.9 1.2 0 12.2-10 12.2-11.1 0-1.9-2-.8-7.4 4.2z"
              />
            </g>
          </svg>